<?xml version="1.0" encoding="utf-8"?>
<!-- Generator: Adobe Illustrator 19.0.0, SVG Export Plug-In . SVG Version: 6.00 Build 0)  -->
<svg version="1.1" id="Layer_1" xmlns="http://www.w3.org/2000/svg" xmlns:xlink="http://www.w3.org/1999/xlink" x="0px" y="0px"
	 viewBox="0 0 425.2 425.2" style="enable-background:new 0 0 425.2 425.2;" xml:space="preserve">
<style type="text/css">
	.st0{fill:#05A25E;}
	.st1{fill:#FCCD4A;}
	.st2{fill:#0F9256;}
	.st3{fill:#14985B;}
	.st4{fill:#F9C941;}
	.st5{fill:#E3B73A;}
	.st6{fill:#E8B834;}
	.st7{fill:#3A66AE;}
	.st8{fill:#3C6AB1;}
	.st9{fill:#3B68B0;}
</style>
<g id="_x23_0ba25eff">
	<path id="XMLID_169_" class="st0" d="M138.8,27.5l0.4,0l0,0.4l-0.5,0L138.8,27.5z"/>
	<path id="XMLID_168_" class="st0" d="M137.4,30.3c0.3-0.5,1-1.4,1.3-1.9l0.6-0.1c0.4,5.3,2,10.4,3.2,15.6
		c5,22.4,10.1,44.8,15.4,67.1c3.5,15.3,7.3,30.5,10.5,45.9c2.8,9.5,4.2,19.3,6.9,28.9c1.7,8.9,4.4,17.6,5.9,26.5
		c-0.6,1-1.2,2-1.8,2.9c-0.1,0.2-0.4,0.7-0.6,0.9l-0.2,0.4c0,0.1-0.1,0.2-0.2,0.3c-0.3,0.6-1,1.8-1.3,2.4c-0.1,0.1-0.2,0.3-0.3,0.4
		l-0.6,1.1c-0.1,0.1-0.2,0.4-0.3,0.5l-0.7,1.2c0,0.1-0.1,0.2-0.2,0.3l-0.9,1.5c-0.1,0.1-0.2,0.4-0.3,0.5c-0.1,0.1-0.3,0.4-0.3,0.6
		l-0.8,1.5c-0.1,0.1-0.2,0.3-0.3,0.5l-0.5,0.9c-0.1,0.2-0.3,0.5-0.4,0.6c-0.3,0.6-1,1.7-1.3,2.3c-0.1,0.1-0.2,0.3-0.2,0.4l-0.5,0.9
		c-0.1,0.2-0.3,0.5-0.4,0.6c-0.3,0.5-0.9,1.6-1.3,2.2c-0.1,0.1-0.2,0.4-0.3,0.5l-0.6,1.1c-0.1,0.1-0.2,0.3-0.2,0.4l-0.6,1.1
		c-0.1,0.1-0.2,0.4-0.3,0.5c-0.3,0.6-1,1.7-1.3,2.2c-0.1,0.1-0.2,0.4-0.3,0.5l-0.6,1.1c-0.1,0.1-0.2,0.3-0.2,0.4l-0.7,1.2
		c-0.1,0.1-0.2,0.3-0.2,0.4c-0.4,0.6-1,1.8-1.4,2.4c-0.1,0.1-0.2,0.3-0.3,0.4l-0.5,0.8c-0.1,0.2-0.3,0.4-0.3,0.6
		c-0.3,0.6-0.9,1.6-1.3,2.2c-0.1,0.1-0.2,0.3-0.2,0.4l-0.7,1.2c-0.1,0.1-0.2,0.3-0.2,0.4l-0.7,1.2c-0.1,0.1-0.2,0.3-0.2,0.4
		c-0.3,0.6-1,1.6-1.3,2.2c-0.1,0.1-0.3,0.4-0.4,0.6l-0.5,0.9c-0.1,0.1-0.2,0.4-0.3,0.5l-0.9,1.5c-0.1,0.1-0.2,0.4-0.3,0.5
		c-0.1,0.1-0.2,0.4-0.3,0.5c-1.4,2.4-2.7,4.8-4.3,7.1c-8.9,14.5-17.1,29.5-25.7,44.1C109,336.5,95,360.7,81,384.9
		c-2.1,3.8-4.5,7.4-6.3,11.3c-0.1,0.1-0.3,0.4-0.4,0.5c-3.3-4.8-5.9-10.2-9-15.2c-14-24.2-28-48.4-41.9-72.6
		C15.7,295.3,7.6,281.9,0,268.1C29.9,216.4,59.7,164.7,89.6,113c0-0.1,0.1-0.1,0.1-0.2l0.8-1.4c0-0.1,0.1-0.2,0.1-0.2l0.8-1.4
		c0.1-0.1,0.2-0.4,0.3-0.5c0.1-0.2,0.3-0.4,0.3-0.6l0.8-1.5c0.1-0.1,0.2-0.3,0.2-0.4l0.6-1c0.1-0.2,0.3-0.5,0.4-0.7
		c0.3-0.5,0.9-1.4,1.2-1.8c0-0.2,0.1-0.4,0.1-0.6l0.7-1.4c0-0.1,0.1-0.2,0.1-0.2l0.8-1.4c0.1-0.1,0.3-0.4,0.3-0.6
		c0.1-0.2,0.3-0.5,0.4-0.7l0.7-1.2c0.1-0.1,0.2-0.4,0.3-0.5l0.6-1c0.1-0.1,0.2-0.3,0.3-0.5c0.3-0.6,1-1.7,1.3-2.2
		c0.1-0.1,0.2-0.4,0.3-0.5l0.6-1.1c0.1-0.1,0.2-0.3,0.2-0.4l0.8-1.4c0.1-0.2,0.3-0.5,0.4-0.7l0.5-0.8c0.1-0.2,0.3-0.5,0.5-0.7
		c0.1-0.2,0.3-0.5,0.4-0.7l0.5-0.9c0.2-0.3,0.5-1,0.6-1.3l0.5-0.6c0.1-0.1,0.2-0.3,0.3-0.5c0.3-0.3,0.9-0.8,1.2-1.1l-0.1-1
		c0.1-0.1,0.2-0.4,0.2-0.5l0.7-1.4c0.1-0.1,0.2-0.3,0.2-0.4l0.6-1c0.1-0.2,0.3-0.5,0.5-0.7c0.3-0.5,0.9-1.4,1.1-1.8
		c0.1-0.2,0.2-0.5,0.3-0.7l0.4-1c0.1-0.3,0.4-0.8,0.6-1l0.6-0.8c0.1-0.2,0.4-0.5,0.5-0.6c0.1-0.2,0.3-0.5,0.4-0.7l0.4-0.9
		c0.1-0.2,0.3-0.6,0.4-0.8l0.7-1.4c0.1-0.2,0.3-0.5,0.4-0.7l0.6-0.8c0.1-0.2,0.4-0.5,0.5-0.7c0.1-0.2,0.3-0.5,0.4-0.7l0.4-0.9
		c0.1-0.2,0.4-0.7,0.5-1l0.6-0.9c0.1-0.2,0.3-0.5,0.4-0.6c0.3-0.5,0.9-1.4,1.2-1.9c0-0.1,0.1-0.4,0.1-0.6l0.7-1.4
		c0-0.1,0.1-0.2,0.1-0.2l0.8-1.4c0.1-0.1,0.2-0.4,0.3-0.6c0.1-0.1,0.2-0.4,0.3-0.6l0.8-1.5c0-0.1,0.1-0.2,0.1-0.2l0.8-1.4
		c0-0.1,0.1-0.2,0.2-0.3l0.8-1.4c0.1-0.1,0.2-0.4,0.3-0.5c0.1-0.1,0.3-0.4,0.3-0.6l0.8-1.4c0.1-0.1,0.2-0.3,0.2-0.4l0.7-1.1
		c0.1-0.2,0.3-0.5,0.4-0.6c0.3-0.5,0.9-1.4,1.2-1.8c0-0.1,0.1-0.4,0.1-0.6l0.7-1.4c0.1-0.1,0.2-0.3,0.2-0.4l0.6-1
		c0.1-0.2,0.3-0.5,0.5-0.7c0.3-0.5,0.9-1.4,1.2-1.9c0-0.1,0.1-0.4,0.2-0.5l0.7-1.4c0-0.1,0.1-0.2,0.1-0.3l0.9-1.4
		c0.1-0.1,0.2-0.4,0.3-0.5c0.1-0.1,0.2-0.4,0.3-0.5l0.8-1.5c0-0.1,0.1-0.2,0.1-0.2l0.8-1.3C137.3,30.4,137.4,30.3,137.4,30.3z"/>
</g>
<g id="_x23_fccd48ff">
	<path id="XMLID_167_" class="st1" d="M139.2,27.5c27.1-0.1,54.3,0,81.4-0.1c22.4,0.1,44.9-0.2,67.4,0.1c0.4,0.9,0.9,1.7,1.4,2.5
		c0.1,0.1,0.2,0.3,0.3,0.5c2.2,3.8,4.4,7.6,6.5,11.3c0,0.1,0.1,0.2,0.2,0.3c4.2,7.1,8.3,14.3,12.4,21.5c0,0.1,0.1,0.2,0.1,0.2
		c0.7,1.3,1.5,2.6,2.3,3.8c0.1,0.1,0.2,0.3,0.3,0.5c1,1.8,2.1,3.7,3.2,5.5c0,0.1,0.1,0.2,0.1,0.2c1.1,1.8,2.1,3.7,3.2,5.5
		c0.1,0.1,0.2,0.3,0.3,0.4c1.1,1.8,2.1,3.6,3.1,5.4c0.1,0.1,0.2,0.3,0.3,0.4c10,17.2,19.9,34.5,29.9,51.7c-1.1,5,1.6,10,0.1,15
		c-0.9,13.7-6.1,27.1-14.7,37.9c-2.8,3-0.1,7.2-0.4,10.8c-3,3.6-6.9,6.3-10.5,9.3c0,2.7,0,5.5-0.1,8.2c-3.2,2.1-7,3.4-10.3,5.5
		c-0.4,1.1-0.7,2.2-1.1,3.4c-2.6,1.3-5.5,2.1-8.1,3.3c-10.5-3-20.9-6.4-31.3-9.5c-9.7-3.2-19.7-5.7-29.3-9.3l-0.6-1
		c-0.1-0.1-0.1-0.2-0.2-0.3l-0.8-1.3c-0.1-0.1-0.3-0.4-0.3-0.6c-0.1-0.1-0.2-0.4-0.3-0.5c-0.6-1.1-1.1-2.1-1.6-3.2l-0.1-0.1
		l-0.1-0.1c-0.4-0.6-1.1-1.8-1.5-2.3c0-0.1-0.1-0.2-0.2-0.3l-0.2-0.4c-0.1-0.2-0.4-0.7-0.6-1c-0.4-0.6-1.1-1.8-1.4-2.4
		c-0.1-0.2-0.3-0.5-0.4-0.6l-0.5-0.9c-0.1-0.1-0.2-0.3-0.3-0.5l-0.8-1.4c0-0.1-0.1-0.2-0.1-0.2l-0.9-1.5c-0.1-0.1-0.2-0.4-0.3-0.5
		c-0.1-0.2-0.3-0.5-0.3-0.6l-0.7-1.2c-0.1-0.1-0.3-0.4-0.3-0.6l-0.5-0.9c-0.1-0.1-0.2-0.4-0.3-0.5c-0.3-0.6-1-1.8-1.3-2.4
		c0-0.1-0.1-0.2-0.2-0.3l-0.2-0.4c-0.2-0.2-0.5-0.7-0.6-0.9c-0.8-1.4-1.6-2.8-2.3-4.2c0-0.1-0.1-0.2-0.2-0.3l-0.2-0.4
		c-0.2-0.2-0.5-0.7-0.6-0.9c-0.4-0.7-1.1-2-1.5-2.6c0-0.1-0.1-0.2-0.2-0.3l-0.2-0.4c-0.2-0.3-0.5-0.8-0.7-1.1l-0.7-1.2
		c-0.1-0.1-0.2-0.4-0.3-0.5c-0.3-0.6-1-1.7-1.3-2.2c-0.1-0.1-0.2-0.4-0.3-0.5c-0.6-0.9-1.1-1.9-1.6-2.8c0-0.1-0.1-0.2-0.2-0.3
		l-0.8-1.4c-0.1-0.1-0.2-0.4-0.3-0.5c-0.1-0.1-0.2-0.4-0.3-0.5l-0.8-1.5c0-0.1-0.1-0.2-0.2-0.3l-0.7-1.2c-0.1-0.1-0.2-0.3-0.2-0.4
		c-0.3-0.6-1-1.7-1.3-2.2c-0.1-0.1-0.2-0.3-0.3-0.5c-0.5-0.9-1-1.7-1.5-2.6c-23.2-40.2-46.4-80.4-69.6-120.5
		c-1.5-2.5-2.8-5.1-4.6-7.4l0-0.4L139.2,27.5z"/>
</g>
<g id="_x23_089156ff">
	<path id="XMLID_166_" class="st2" d="M138.8,27.9l0.5,0l0,0.4l-0.6,0.1L138.8,27.9z"/>
	<path id="XMLID_165_" class="st2" d="M139.3,28.3c1.8,2.3,3.1,4.9,4.6,7.4c23.2,40.2,46.4,80.3,69.6,120.5
		c-10.7,18.7-21.5,37.3-32.3,56c-1.4-8.9-4.1-17.6-5.9-26.5c-2.7-9.5-4.1-19.3-6.9-28.9c-3.2-15.4-7-30.6-10.5-45.9
		c-5.3-22.3-10.4-44.7-15.4-67.1C141.3,38.7,139.7,33.6,139.3,28.3z"/>
	<path id="XMLID_164_" class="st2" d="M137.3,30.4c0,0,0.1-0.1,0.1-0.2C137.4,30.3,137.3,30.4,137.3,30.4z"/>
	<path id="XMLID_163_" class="st2" d="M136.4,32c0-0.1,0.1-0.2,0.1-0.2C136.5,31.8,136.4,32,136.4,32z"/>
	<path id="XMLID_162_" class="st2" d="M135.2,34.1c0.1-0.1,0.2-0.4,0.3-0.5C135.5,33.7,135.3,33.9,135.2,34.1z"/>
	<path id="XMLID_161_" class="st2" d="M134.9,34.6c0.1-0.1,0.2-0.4,0.3-0.5C135.1,34.2,135,34.4,134.9,34.6z"/>
	<path id="XMLID_160_" class="st2" d="M133.9,36.2c0-0.1,0.1-0.2,0.1-0.3C134,36.1,134,36.2,133.9,36.2z"/>
	<path id="XMLID_159_" class="st2" d="M133.1,38.2c0-0.1,0.1-0.4,0.2-0.5C133.2,37.8,133.1,38,133.1,38.2z"/>
	<path id="XMLID_158_" class="st2" d="M131.9,40c0.3-0.5,0.9-1.4,1.2-1.9C132.8,38.6,132.2,39.6,131.9,40z"/>
	<path id="XMLID_157_" class="st2" d="M131.4,40.7c0.1-0.2,0.3-0.5,0.5-0.7C131.8,40.2,131.6,40.5,131.4,40.7z"/>
	<path id="XMLID_156_" class="st2" d="M130.6,42.1c0.1-0.1,0.2-0.3,0.2-0.4C130.7,41.8,130.6,42,130.6,42.1z"/>
	<path id="XMLID_155_" class="st2" d="M129.7,44c0-0.1,0.1-0.4,0.1-0.6C129.8,43.6,129.7,43.9,129.7,44z"/>
	<path id="XMLID_154_" class="st2" d="M128.5,45.9c0.3-0.5,0.9-1.4,1.2-1.8C129.4,44.5,128.8,45.4,128.5,45.9z"/>
	<path id="XMLID_153_" class="st2" d="M128.1,46.5c0.1-0.2,0.3-0.5,0.4-0.6C128.4,46,128.2,46.3,128.1,46.5z"/>
	<path id="XMLID_152_" class="st2" d="M127.2,47.9c0.1-0.1,0.2-0.3,0.2-0.4C127.3,47.7,127.2,47.8,127.2,47.9z"/>
	<path id="XMLID_151_" class="st2" d="M126.1,49.9c0.1-0.1,0.3-0.4,0.3-0.6C126.3,49.5,126.1,49.8,126.1,49.9z"/>
	<path id="XMLID_150_" class="st2" d="M125.8,50.5c0.1-0.1,0.2-0.4,0.3-0.5C126,50.1,125.8,50.3,125.8,50.5z"/>
	<path id="XMLID_149_" class="st2" d="M124.8,52.1c0-0.1,0.1-0.2,0.2-0.3C124.9,51.9,124.8,52.1,124.8,52.1z"/>
	<path id="XMLID_148_" class="st2" d="M123.8,53.7c0-0.1,0.1-0.2,0.1-0.2C123.9,53.6,123.9,53.7,123.8,53.7z"/>
	<path id="XMLID_147_" class="st2" d="M122.7,55.7c0.1-0.1,0.2-0.4,0.3-0.6C122.9,55.3,122.8,55.6,122.7,55.7z"/>
	<path id="XMLID_146_" class="st2" d="M122.4,56.3c0.1-0.1,0.2-0.4,0.3-0.6C122.6,55.9,122.4,56.2,122.4,56.3z"/>
	<path id="XMLID_145_" class="st2" d="M121.4,58c0-0.1,0.1-0.2,0.1-0.2C121.5,57.8,121.4,57.9,121.4,58z"/>
	<path id="XMLID_144_" class="st2" d="M120.5,59.9c0-0.1,0.1-0.4,0.1-0.6C120.6,59.5,120.6,59.8,120.5,59.9z"/>
	<path id="XMLID_143_" class="st2" d="M119.3,61.8c0.3-0.5,0.9-1.4,1.2-1.9C120.2,60.4,119.6,61.3,119.3,61.8z"/>
	<path id="XMLID_142_" class="st2" d="M118.9,62.4c0.1-0.2,0.3-0.5,0.4-0.6C119.2,61.9,119,62.2,118.9,62.4z"/>
	<path id="XMLID_141_" class="st2" d="M117.9,64.3c0.1-0.2,0.4-0.7,0.5-1C118.2,63.6,118,64.1,117.9,64.3z"/>
	<path id="XMLID_140_" class="st2" d="M117,65.8c0.1-0.2,0.3-0.5,0.4-0.7C117.3,65.3,117.1,65.7,117,65.8z"/>
	<path id="XMLID_139_" class="st2" d="M116.5,66.5c0.1-0.2,0.4-0.5,0.5-0.7C116.9,66,116.7,66.3,116.5,66.5z"/>
	<path id="XMLID_138_" class="st2" d="M115.6,68c0.1-0.2,0.3-0.5,0.4-0.7C115.9,67.5,115.7,67.8,115.6,68z"/>
	<path id="XMLID_137_" class="st2" d="M114.5,70.2c0.1-0.2,0.3-0.6,0.4-0.8C114.8,69.6,114.6,70,114.5,70.2z"/>
	<path id="XMLID_136_" class="st2" d="M113.7,71.7c0.1-0.2,0.3-0.5,0.4-0.7C114,71.2,113.8,71.5,113.7,71.7z"/>
	<path id="XMLID_135_" class="st2" d="M113.2,72.3c0.1-0.2,0.4-0.5,0.5-0.6C113.5,71.9,113.3,72.2,113.2,72.3z"/>
	<path id="XMLID_134_" class="st2" d="M112.1,74.1c0.1-0.3,0.4-0.8,0.6-1C112.5,73.4,112.2,73.9,112.1,74.1z"/>
	<path id="XMLID_133_" class="st2" d="M111.3,75.8c0.1-0.2,0.2-0.5,0.3-0.7C111.6,75.3,111.4,75.6,111.3,75.8z"/>
	<path id="XMLID_132_" class="st2" d="M110.2,77.6c0.3-0.5,0.9-1.4,1.1-1.8C111,76.2,110.5,77.1,110.2,77.6z"/>
	<path id="XMLID_131_" class="st2" d="M109.7,78.3c0.1-0.2,0.3-0.5,0.5-0.7C110.1,77.8,109.8,78.1,109.7,78.3z"/>
	<path id="XMLID_130_" class="st2" d="M108.9,79.7c0.1-0.1,0.2-0.3,0.2-0.4C109,79.4,108.9,79.6,108.9,79.7z"/>
	<path id="XMLID_129_" class="st2" d="M107.9,81.6c0.1-0.1,0.2-0.4,0.2-0.5C108.1,81.2,108,81.5,107.9,81.6z"/>
	<path id="XMLID_128_" class="st2" d="M106.7,83.6c0.3-0.5,0.9-1.5,1.2-2l0.1,1C107.7,82.8,107,83.4,106.7,83.6z"/>
	<path id="XMLID_127_" class="st2" d="M106.4,84.1c0.1-0.1,0.2-0.3,0.3-0.5C106.7,83.7,106.5,84,106.4,84.1z"/>
	<path id="XMLID_126_" class="st2" d="M105.3,86c0.2-0.3,0.5-1,0.6-1.3C105.8,85,105.5,85.7,105.3,86z"/>
	<path id="XMLID_125_" class="st2" d="M104.5,87.6c0.1-0.2,0.3-0.5,0.4-0.7C104.8,87.1,104.6,87.4,104.5,87.6z"/>
	<path id="XMLID_124_" class="st2" d="M104,88.2c0.1-0.2,0.3-0.5,0.5-0.7C104.4,87.7,104.1,88,104,88.2z"/>
	<path id="XMLID_123_" class="st2" d="M103.1,89.7c0.1-0.2,0.3-0.5,0.4-0.7C103.4,89.2,103.2,89.5,103.1,89.7z"/>
	<path id="XMLID_122_" class="st2" d="M102.1,91.5c0.1-0.1,0.2-0.3,0.2-0.4C102.2,91.2,102.1,91.4,102.1,91.5z"/>
	<path id="XMLID_121_" class="st2" d="M101.2,93c0.1-0.1,0.2-0.4,0.3-0.5C101.4,92.7,101.2,92.9,101.2,93z"/>
	<path id="XMLID_120_" class="st2" d="M99.6,95.7c0.1-0.1,0.2-0.3,0.3-0.5C99.8,95.4,99.7,95.6,99.6,95.7z"/>
	<path id="XMLID_119_" class="st2" d="M98.7,97.3c0.1-0.1,0.2-0.4,0.3-0.5C98.9,96.9,98.8,97.1,98.7,97.3z"/>
	<path id="XMLID_118_" class="st2" d="M97.6,99.2c0.1-0.2,0.3-0.5,0.4-0.7C97.9,98.7,97.7,99,97.6,99.2z"/>
	<path id="XMLID_117_" class="st2" d="M97.3,99.7c0.1-0.1,0.3-0.4,0.3-0.6C97.5,99.3,97.4,99.6,97.3,99.7z"/>
	<path id="XMLID_116_" class="st2" d="M96.3,101.4c0-0.1,0.1-0.2,0.1-0.2C96.4,101.2,96.4,101.3,96.3,101.4z"/>
	<path id="XMLID_115_" class="st2" d="M95.5,103.3c0-0.2,0.1-0.4,0.1-0.6C95.6,102.9,95.5,103.2,95.5,103.3z"/>
	<path id="XMLID_114_" class="st2" d="M94.3,105.2c0.3-0.5,0.9-1.4,1.2-1.8C95.2,103.8,94.6,104.7,94.3,105.2z"/>
	<path id="XMLID_113_" class="st2" d="M93.8,105.8c0.1-0.2,0.3-0.5,0.4-0.7C94.2,105.3,93.9,105.6,93.8,105.8z"/>
	<path id="XMLID_112_" class="st2" d="M93,107.2c0.1-0.1,0.2-0.3,0.2-0.4C93.1,106.9,93,107.1,93,107.2z"/>
	<path id="XMLID_111_" class="st2" d="M91.8,109.3c0.1-0.2,0.3-0.4,0.3-0.6C92.1,108.8,91.9,109.1,91.8,109.3z"/>
	<path id="XMLID_110_" class="st2" d="M91.5,109.8c0.1-0.1,0.2-0.4,0.3-0.5C91.7,109.4,91.6,109.6,91.5,109.8z"/>
	<path id="XMLID_109_" class="st2" d="M90.5,111.4c0-0.1,0.1-0.2,0.1-0.2C90.6,111.2,90.6,111.4,90.5,111.4z"/>
	<path id="XMLID_108_" class="st2" d="M89.6,113c0-0.1,0.1-0.1,0.1-0.2C89.7,112.9,89.6,113,89.6,113z"/>
	<path id="XMLID_107_" class="st2" d="M178.7,216.1c0.1-0.2,0.4-0.7,0.6-0.9C179.2,215.4,178.9,215.8,178.7,216.1z"/>
	<path id="XMLID_106_" class="st2" d="M178.4,216.7c0-0.1,0.1-0.2,0.2-0.3C178.5,216.5,178.4,216.7,178.4,216.7z"/>
	<path id="XMLID_105_" class="st2" d="M176.8,219.5c0.1-0.1,0.2-0.3,0.3-0.4C177,219.2,176.9,219.4,176.8,219.5z"/>
	<path id="XMLID_104_" class="st2" d="M175.9,221.1c0.1-0.1,0.2-0.4,0.3-0.5C176.2,220.7,176,221,175.9,221.1z"/>
	<path id="XMLID_103_" class="st2" d="M175.1,222.6c0-0.1,0.1-0.2,0.2-0.3C175.2,222.4,175.1,222.5,175.1,222.6z"/>
	<path id="XMLID_102_" class="st2" d="M173.9,224.6c0.1-0.1,0.2-0.4,0.3-0.5C174.2,224.2,174,224.5,173.9,224.6z"/>
	<path id="XMLID_101_" class="st2" d="M173.6,225.2c0.1-0.1,0.3-0.4,0.3-0.6C173.9,224.7,173.7,225,173.6,225.2z"/>
	<path id="XMLID_100_" class="st2" d="M172.5,227.1c0.1-0.1,0.2-0.3,0.3-0.5C172.7,226.7,172.6,227,172.5,227.1z"/>
	<path id="XMLID_99_" class="st2" d="M171.6,228.5c0.1-0.2,0.3-0.5,0.4-0.6C171.9,228.1,171.7,228.4,171.6,228.5z"/>
	<path id="XMLID_98_" class="st2" d="M170.1,231.3c0.1-0.1,0.2-0.3,0.2-0.4C170.2,231,170.1,231.2,170.1,231.3z"/>
	<path id="XMLID_97_" class="st2" d="M169.2,232.8c0.1-0.2,0.3-0.5,0.4-0.6C169.5,232.3,169.3,232.6,169.2,232.8z"/>
	<path id="XMLID_96_" class="st2" d="M167.6,235.4c0.1-0.1,0.2-0.4,0.3-0.5C167.8,235.1,167.7,235.3,167.6,235.4z"/>
	<path id="XMLID_95_" class="st2" d="M166.8,237c0.1-0.1,0.2-0.3,0.2-0.4C166.9,236.7,166.8,236.9,166.8,237z"/>
	<path id="XMLID_94_" class="st2" d="M165.9,238.6c0.1-0.1,0.2-0.4,0.3-0.5C166.1,238.2,165.9,238.5,165.9,238.6z"/>
	<path id="XMLID_93_" class="st2" d="M164.2,241.3c0.1-0.1,0.2-0.4,0.3-0.5C164.5,240.9,164.3,241.2,164.2,241.3z"/>
	<path id="XMLID_92_" class="st2" d="M163.4,242.8c0.1-0.1,0.2-0.3,0.2-0.4C163.6,242.5,163.5,242.7,163.4,242.8z"/>
	<path id="XMLID_91_" class="st2" d="M162.5,244.4c0.1-0.1,0.2-0.3,0.2-0.4C162.7,244.1,162.6,244.3,162.5,244.4z"/>
	<path id="XMLID_90_" class="st2" d="M160.9,247.2c0.1-0.1,0.2-0.3,0.3-0.4C161.1,246.9,160.9,247.1,160.9,247.2z"/>
	<path id="XMLID_89_" class="st2" d="M160,248.6c0.1-0.2,0.3-0.4,0.3-0.6C160.3,248.2,160.1,248.5,160,248.6z"/>
	<path id="XMLID_88_" class="st2" d="M158.5,251.2c0.1-0.1,0.2-0.3,0.2-0.4C158.7,250.9,158.6,251.1,158.5,251.2z"/>
	<path id="XMLID_87_" class="st2" d="M157.6,252.8c0.1-0.1,0.2-0.3,0.2-0.4C157.8,252.5,157.7,252.7,157.6,252.8z"/>
	<path id="XMLID_86_" class="st2" d="M156.7,254.4c0.1-0.1,0.2-0.3,0.2-0.4C156.9,254.1,156.8,254.3,156.7,254.4z"/>
	<path id="XMLID_85_" class="st2" d="M155.1,257.2c0.1-0.2,0.3-0.5,0.4-0.6C155.3,256.7,155.1,257,155.1,257.2z"/>
	<path id="XMLID_84_" class="st2" d="M154.3,258.6c0.1-0.1,0.2-0.3,0.3-0.5C154.5,258.2,154.4,258.5,154.3,258.6z"/>
	<path id="XMLID_83_" class="st2" d="M153.2,260.6c0.1-0.1,0.2-0.4,0.3-0.5C153.4,260.2,153.2,260.4,153.2,260.6z"/>
	<path id="XMLID_82_" class="st2" d="M152.9,261c0.1-0.1,0.2-0.4,0.3-0.5C153.1,260.7,153,260.9,152.9,261z"/>
</g>
<g id="_x23_10985bff">
	<path id="XMLID_81_" class="st3" d="M289.3,30.1c0.1,0.1,0.2,0.3,0.3,0.5C289.5,30.5,289.4,30.2,289.3,30.1z"/>
	<path id="XMLID_80_" class="st3" d="M296.1,41.9c0,0.1,0.1,0.2,0.2,0.3C296.2,42.1,296.1,42,296.1,41.9z"/>
	<path id="XMLID_79_" class="st3" d="M308.6,63.7c0,0.1,0.1,0.2,0.1,0.2C308.8,63.8,308.7,63.7,308.6,63.7z"/>
	<path id="XMLID_78_" class="st3" d="M311.1,67.7c0.1,0.1,0.2,0.3,0.3,0.5C311.2,68.1,311.1,67.8,311.1,67.7z"/>
	<path id="XMLID_77_" class="st3" d="M314.5,73.7c0,0.1,0.1,0.2,0.1,0.2C314.6,73.9,314.5,73.7,314.5,73.7z"/>
	<path id="XMLID_76_" class="st3" d="M317.8,79.4c0.1,0.1,0.2,0.3,0.3,0.4C318,79.7,317.8,79.5,317.8,79.4z"/>
	<path id="XMLID_75_" class="st3" d="M321.1,85.2c0.1,0.1,0.2,0.3,0.3,0.4C321.3,85.6,321.2,85.4,321.1,85.2z"/>
</g>
<g id="_x23_f9c941ff">
	<path id="XMLID_74_" class="st4" d="M351.3,137.4c14.5,25.2,29.1,50.3,43.5,75.5c0.1,0.1,0.2,0.3,0.3,0.5c0.3,0.6,1,1.6,1.3,2.2
		c0.1,0.1,0.2,0.3,0.3,0.4l0.7,1.1c0,0.1,0.1,0.2,0.2,0.3l0.8,1.5c0.1,0.1,0.2,0.4,0.3,0.6c0.1,0.1,0.2,0.4,0.3,0.5l0.8,1.4
		c0,0.1,0.1,0.2,0.1,0.2l0.8,1.4c0,0.1,0.1,0.2,0.1,0.2l0.8,1.4c0.1,0.1,0.2,0.4,0.3,0.6c0.1,0.1,0.2,0.4,0.3,0.6l0.8,1.5
		c0.1,0.3,0.4,0.9,0.5,1.1l0.2,0.5l0.1,0.2l0.2,0.2l0.5,0.7c0.2,0.3,0.5,0.8,0.7,1.1c0.1,0.2,0.3,0.5,0.4,0.7l0.6,0.9
		c0.2,0.4,0.5,1.1,0.7,1.5l0.3,0.5l0.1,0.2l0.1,0.1c0.4,0.5,1.1,1.6,1.5,2.2c0.1,0.2,0.3,0.5,0.4,0.6l0.5,0.8
		c0.1,0.1,0.2,0.4,0.3,0.5l0.8,1.5c0.1,0.1,0.2,0.4,0.3,0.5s0.2,0.4,0.3,0.5l0.8,1.4c0,0.1,0.1,0.2,0.2,0.3l0.8,1.3
		c0.1,0.1,0.2,0.3,0.2,0.3l0.8,1.3c0.1,0.2,0.3,0.5,0.4,0.6c0.1,0.1,0.2,0.4,0.3,0.5c0.6,1,1.2,2.1,1.8,3.1c0.1,0.2,0.3,0.5,0.3,0.7
		l0.4,0.9c0.1,0.2,0.3,0.5,0.4,0.7c0.1,0.2,0.4,0.5,0.5,0.6l0.6,0.8c0.1,0.2,0.3,0.5,0.4,0.6l0.8,1.5c0.1,0.1,0.2,0.4,0.3,0.5
		c0.1,0.1,0.2,0.4,0.3,0.5l0.8,1.4c0,0.1,0.1,0.2,0.1,0.2l0.8,1.4c0,0.1,0.1,0.2,0.1,0.2l0.8,1.4c0.1,0.1,0.3,0.4,0.3,0.6
		c0.1,0.1,0.3,0.4,0.3,0.6l0.8,1.4c0,0.1,0.1,0.2,0.1,0.2l0.9,1.7l0,0.8c-20.9-6-41.5-13.1-62.4-18.9c-19-6.1-38.2-11.7-57.2-17.8
		c2.6-1.3,5.5-2.1,8.1-3.3c0.3-1.1,0.7-2.2,1.1-3.4c3.3-2.1,7-3.3,10.3-5.5c0.1-2.7,0.1-5.5,0.1-8.2c3.6-2.9,7.5-5.6,10.5-9.3
		c0.3-3.6-2.4-7.8,0.4-10.8c8.6-10.8,13.7-24.2,14.7-37.9C352.9,147.4,350.1,142.4,351.3,137.4z"/>
	<path id="XMLID_73_" class="st4" d="M425.9,267.5l0.4,0l0.2,0.6l-0.5,0L425.9,267.5z"/>
</g>
<g id="_x23_e3b73aff">
	<path id="XMLID_72_" class="st5" d="M214.9,158.8c0.1,0.1,0.2,0.3,0.3,0.5C215.1,159.2,215,158.9,214.9,158.8z"/>
	<path id="XMLID_71_" class="st5" d="M216.5,161.5c0.1,0.1,0.2,0.3,0.2,0.4C216.6,161.8,216.5,161.6,216.5,161.5z"/>
	<path id="XMLID_70_" class="st5" d="M217.4,163.1c0,0.1,0.1,0.2,0.2,0.3C217.5,163.3,217.4,163.2,217.4,163.1z"/>
	<path id="XMLID_69_" class="st5" d="M218.4,164.9c0.1,0.1,0.2,0.4,0.3,0.5C218.6,165.3,218.5,165,218.4,164.9z"/>
	<path id="XMLID_68_" class="st5" d="M218.7,165.4c0.1,0.1,0.2,0.4,0.3,0.5C218.9,165.8,218.8,165.5,218.7,165.4z"/>
	<path id="XMLID_67_" class="st5" d="M219.8,167.3c0,0.1,0.1,0.2,0.2,0.3C219.9,167.5,219.8,167.4,219.8,167.3z"/>
	<path id="XMLID_66_" class="st5" d="M221.6,170.4c0.1,0.1,0.2,0.4,0.3,0.5C221.8,170.8,221.7,170.6,221.6,170.4z"/>
	<path id="XMLID_65_" class="st5" d="M223.2,173.2c0.1,0.1,0.2,0.4,0.3,0.5C223.4,173.5,223.3,173.3,223.2,173.2z"/>
	<path id="XMLID_64_" class="st5" d="M224.2,174.8c0.2,0.3,0.5,0.8,0.7,1.1C224.7,175.7,224.4,175.1,224.2,174.8z"/>
	<path id="XMLID_63_" class="st5" d="M225.1,176.3c0,0.1,0.1,0.2,0.2,0.3C225.2,176.6,225.1,176.4,225.1,176.3z"/>
	<path id="XMLID_62_" class="st5" d="M226.7,179.3c0.2,0.2,0.5,0.7,0.6,0.9C227.2,179.9,226.9,179.5,226.7,179.3z"/>
	<path id="XMLID_61_" class="st5" d="M227.6,180.5c0,0.1,0.1,0.2,0.2,0.3C227.7,180.8,227.6,180.6,227.6,180.5z"/>
	<path id="XMLID_60_" class="st5" d="M230.1,185.1c0.2,0.2,0.5,0.7,0.6,0.9C230.5,185.8,230.2,185.3,230.1,185.1z"/>
	<path id="XMLID_59_" class="st5" d="M230.9,186.4c0,0.1,0.1,0.2,0.2,0.3C231,186.6,230.9,186.4,230.9,186.4z"/>
	<path id="XMLID_58_" class="st5" d="M232.4,189.1c0.1,0.1,0.2,0.4,0.3,0.5C232.6,189.4,232.4,189.2,232.4,189.1z"/>
	<path id="XMLID_57_" class="st5" d="M233.2,190.5c0.1,0.1,0.3,0.4,0.3,0.6C233.5,190.9,233.3,190.6,233.2,190.5z"/>
	<path id="XMLID_56_" class="st5" d="M234.2,192.3c0.1,0.2,0.3,0.5,0.3,0.6C234.5,192.8,234.3,192.5,234.2,192.3z"/>
	<path id="XMLID_55_" class="st5" d="M234.6,192.9c0.1,0.1,0.2,0.4,0.3,0.5C234.8,193.3,234.6,193,234.6,192.9z"/>
	<path id="XMLID_54_" class="st5" d="M235.7,194.9c0,0.1,0.1,0.2,0.1,0.2C235.8,195.1,235.8,195,235.7,194.9z"/>
	<path id="XMLID_53_" class="st5" d="M236.7,196.5c0.1,0.1,0.2,0.3,0.3,0.5C236.9,196.9,236.7,196.7,236.7,196.5z"/>
	<path id="XMLID_52_" class="st5" d="M237.5,197.9c0.1,0.2,0.3,0.5,0.4,0.6C237.7,198.3,237.5,198,237.5,197.9z"/>
	<path id="XMLID_51_" class="st5" d="M239.3,200.9c0.1,0.2,0.4,0.7,0.6,1C239.7,201.6,239.4,201.2,239.3,200.9z"/>
	<path id="XMLID_50_" class="st5" d="M240.1,202.3c0,0.1,0.1,0.2,0.2,0.3C240.2,202.5,240.1,202.3,240.1,202.3z"/>
	<path id="XMLID_49_" class="st5" d="M241.7,204.9L241.7,204.9l0.1,0.2C241.8,205,241.8,204.9,241.7,204.9z"/>
	<path id="XMLID_48_" class="st5" d="M243.5,208.3c0.1,0.1,0.2,0.4,0.3,0.5C243.7,208.7,243.5,208.4,243.5,208.3z"/>
	<path id="XMLID_47_" class="st5" d="M243.7,208.8c0.1,0.1,0.3,0.4,0.3,0.6C244,209.2,243.8,208.9,243.7,208.8z"/>
	<path id="XMLID_46_" class="st5" d="M244.9,210.7c0,0.1,0.1,0.2,0.2,0.3C245,210.9,244.9,210.8,244.9,210.7z"/>
	<path id="XMLID_45_" class="st5" d="M245.6,212c9.6,3.5,19.6,6.1,29.3,9.3c10.5,3.1,20.8,6.4,31.3,9.5c19,6.1,38.2,11.7,57.2,17.8
		c-0.3,4.1,0.5,8.2-0.5,12.2c-0.8,3.9-5.4,4.5-7.3,7.6c-25.7,0-51.4,0.1-77.1,0l-0.6,0C267.4,249.4,256.3,230.8,245.6,212z"/>
</g>
<g id="_x23_e8b835ff">
	<path id="XMLID_44_" class="st6" d="M394.8,212.9c0.1,0.1,0.2,0.3,0.3,0.5C395,213.3,394.9,213,394.8,212.9z"/>
	<path id="XMLID_43_" class="st6" d="M396.4,215.6c0.1,0.1,0.2,0.3,0.3,0.4C396.6,215.9,396.5,215.7,396.4,215.6z"/>
	<path id="XMLID_42_" class="st6" d="M397.3,217.1c0,0.1,0.1,0.2,0.2,0.3C397.5,217.4,397.4,217.2,397.3,217.1z"/>
	<path id="XMLID_41_" class="st6" d="M398.3,218.9c0.1,0.1,0.2,0.4,0.3,0.6C398.6,219.3,398.4,219,398.3,218.9z"/>
	<path id="XMLID_40_" class="st6" d="M398.7,219.5c0.1,0.1,0.2,0.4,0.3,0.5C398.9,219.9,398.7,219.6,398.7,219.5z"/>
	<path id="XMLID_39_" class="st6" d="M399.8,221.4c0,0.1,0.1,0.2,0.1,0.2C399.9,221.6,399.8,221.5,399.8,221.4z"/>
	<path id="XMLID_38_" class="st6" d="M400.7,223.1c0,0.1,0.1,0.2,0.1,0.2C400.8,223.2,400.8,223.1,400.7,223.1z"/>
	<path id="XMLID_37_" class="st6" d="M401.7,224.7c0.1,0.1,0.2,0.4,0.3,0.6C401.9,225.1,401.8,224.8,401.7,224.7z"/>
	<path id="XMLID_36_" class="st6" d="M402,225.3c0.1,0.1,0.2,0.4,0.3,0.6C402.3,225.7,402.1,225.4,402,225.3z"/>
	<path id="XMLID_35_" class="st6" d="M403.2,227.3c0.1,0.3,0.4,0.9,0.5,1.1C403.5,228.2,403.3,227.6,403.2,227.3z"/>
	<path id="XMLID_34_" class="st6" d="M403.9,228.9c0.1,0.1,0.2,0.4,0.3,0.5l-0.2-0.2L403.9,228.9z"/>
	<path id="XMLID_33_" class="st6" d="M404.7,230.1c0.2,0.3,0.5,0.8,0.7,1.1C405.2,231,404.8,230.4,404.7,230.1z"/>
	<path id="XMLID_32_" class="st6" d="M405.3,231.2c0.1,0.2,0.3,0.5,0.4,0.7C405.7,231.7,405.4,231.4,405.3,231.2z"/>
	<path id="XMLID_31_" class="st6" d="M406.3,232.8c0.2,0.4,0.5,1.1,0.7,1.5C406.8,233.9,406.5,233.2,406.3,232.8z"/>
	<path id="XMLID_30_" class="st6" d="M407.2,234.7c0,0.1,0.1,0.2,0.2,0.3l-0.1-0.1L407.2,234.7z"/>
	<path id="XMLID_29_" class="st6" d="M408.9,237.2c0.1,0.2,0.3,0.5,0.4,0.6C409.1,237.7,409,237.4,408.9,237.2z"/>
	<path id="XMLID_28_" class="st6" d="M409.7,238.6c0.1,0.1,0.2,0.4,0.3,0.5C410,239,409.8,238.8,409.7,238.6z"/>
	<path id="XMLID_27_" class="st6" d="M410.9,240.6c0.1,0.1,0.2,0.4,0.3,0.5C411.1,241,411,240.8,410.9,240.6z"/>
	<path id="XMLID_26_" class="st6" d="M411.2,241.2c0.1,0.1,0.2,0.4,0.3,0.5C411.4,241.6,411.3,241.3,411.2,241.2z"/>
	<path id="XMLID_25_" class="st6" d="M412.3,243.1c0,0.1,0.1,0.2,0.2,0.3C412.4,243.3,412.4,243.2,412.3,243.1z"/>
	<path id="XMLID_24_" class="st6" d="M413.2,244.7c0.1,0.1,0.2,0.3,0.2,0.3C413.4,245,413.3,244.8,413.2,244.7z"/>
	<path id="XMLID_23_" class="st6" d="M414.2,246.4c0.1,0.2,0.3,0.5,0.4,0.6C414.5,246.9,414.3,246.5,414.2,246.4z"/>
	<path id="XMLID_22_" class="st6" d="M414.6,247c0.1,0.1,0.2,0.4,0.3,0.5C414.8,247.4,414.6,247.1,414.6,247z"/>
	<path id="XMLID_21_" class="st6" d="M363.5,248.6c21,5.8,41.5,12.9,62.4,18.9l0.2,0.7c-23.5,0.5-47,0.1-70.4,0.2
		c1.9-3.1,6.6-3.7,7.3-7.6C364,256.8,363.2,252.6,363.5,248.6z"/>
	<path id="XMLID_20_" class="st6" d="M416.6,250.7c0.1,0.2,0.3,0.5,0.3,0.7C416.9,251.2,416.7,250.9,416.6,250.7z"/>
	<path id="XMLID_19_" class="st6" d="M417.3,252.3c0.1,0.2,0.3,0.5,0.4,0.7C417.6,252.8,417.4,252.4,417.3,252.3z"/>
	<path id="XMLID_18_" class="st6" d="M417.7,252.9c0.1,0.2,0.4,0.5,0.5,0.6C418.1,253.4,417.9,253.1,417.7,252.9z"/>
	<path id="XMLID_17_" class="st6" d="M418.8,254.4c0.1,0.2,0.3,0.5,0.4,0.6C419.1,254.9,418.9,254.5,418.8,254.4z"/>
	<path id="XMLID_16_" class="st6" d="M420.1,256.5c0.1,0.1,0.2,0.4,0.3,0.5C420.3,256.9,420.1,256.6,420.1,256.5z"/>
	<path id="XMLID_15_" class="st6" d="M420.4,257c0.1,0.1,0.2,0.4,0.3,0.5C420.6,257.4,420.4,257.2,420.4,257z"/>
	<path id="XMLID_14_" class="st6" d="M421.5,259c0,0.1,0.1,0.2,0.1,0.2C421.6,259.2,421.5,259.1,421.5,259z"/>
	<path id="XMLID_13_" class="st6" d="M422.4,260.6c0,0.1,0.1,0.2,0.1,0.2C422.5,260.8,422.5,260.7,422.4,260.6z"/>
	<path id="XMLID_12_" class="st6" d="M423.4,262.3c0.1,0.1,0.3,0.4,0.3,0.6C423.6,262.7,423.5,262.4,423.4,262.3z"/>
	<path id="XMLID_11_" class="st6" d="M423.7,262.8c0.1,0.1,0.3,0.4,0.3,0.6C424,263.3,423.8,263,423.7,262.8z"/>
	<path id="XMLID_10_" class="st6" d="M424.9,264.8c0,0.1,0.1,0.2,0.1,0.2C425,265,424.9,264.9,424.9,264.8z"/>
	<path id="XMLID_9_" class="st6" d="M425.9,266.7c0.1,0.2,0.3,0.6,0.4,0.8l-0.4,0L425.9,266.7z"/>
</g>
<g id="_x23_296ad9ff">
	<path id="XMLID_8_" class="st7" d="M122.9,312.3c8.6-14.7,16.8-29.6,25.7-44.1c43.1,0.2,86.2-0.2,129.4,0.2l0.6,0
		c-21.8,0.7-43.7-0.2-65.5,0.4c-4.2,2.7-6.9,7-10.9,9.9c-3.7,2.7-6.4,6.5-10,9.3c-5,3.6-8.6,8.7-13.7,12.3
		c-5.8,6.2-12.5,11.3-18.4,17.5c-4.4,3.4-8.1,7.5-12.2,11.3c-4.5,3.3-8,7.7-12.2,11.3c-0.1,0.1-0.3,0.3-0.4,0.4
		c-0.2,0.2-0.7,0.5-0.9,0.7c-0.1,0.1-0.3,0.3-0.4,0.4c-3.3,2.6-5.9,5.9-9.1,8.6c-0.1,0.1-0.3,0.3-0.4,0.4c-0.1,0.1-0.3,0.3-0.4,0.4
		c-4.8,3.9-8.6,8.8-13.5,12.5c-5,5-10.7,9.3-15.5,14.5c-7,5.8-13.1,12.6-20.4,18.2c1.8-3.9,4.2-7.5,6.3-11.3
		C95,360.7,109,336.5,122.9,312.3z"/>
	<path id="XMLID_7_" class="st7" d="M74.4,396.7c0.1-0.1,0.3-0.4,0.4-0.5l0,0.5L74.4,396.7z"/>
</g>
<g id="_x23_2a71e9ff">
	<path id="XMLID_6_" class="st8" d="M278.6,268.4c25.7,0.1,51.4,0,77.1,0c23.5-0.1,47,0.3,70.4-0.2l0.5,0l0.3,0.1v0.1
		c-24.8,42.8-49.5,85.7-74.2,128.5c-92.6,0-185.3,0.1-277.9-0.1l0-0.5c7.3-5.6,13.4-12.4,20.4-18.2c4.8-5.2,10.4-9.5,15.5-14.5
		c5-3.6,8.8-8.6,13.5-12.5c0.1-0.1,0.3-0.3,0.4-0.4c0.1-0.1,0.3-0.3,0.4-0.4c3.3-2.6,5.8-6,9.1-8.6c0.1-0.1,0.3-0.3,0.4-0.4
		c0.2-0.2,0.7-0.5,0.9-0.7c0.1-0.1,0.3-0.3,0.4-0.4c4.2-3.6,7.7-8,12.2-11.3c4.1-3.7,7.8-7.9,12.2-11.3c5.9-6.1,12.6-11.3,18.4-17.5
		c5-3.6,8.7-8.6,13.7-12.3c3.5-2.9,6.3-6.6,10-9.3c4-2.9,6.8-7.3,10.9-9.9C234.9,268.2,256.7,269.1,278.6,268.4z"/>
</g>
<g id="_x23_286ee6ff">
	<path id="XMLID_5_" class="st9" d="M135.4,340.7c0.1-0.1,0.3-0.3,0.4-0.4C135.7,340.4,135.5,340.6,135.4,340.7z"/>
	<path id="XMLID_4_" class="st9" d="M134.5,341.4c0.2-0.2,0.7-0.5,0.9-0.7C135.2,340.9,134.7,341.2,134.5,341.4z"/>
	<path id="XMLID_3_" class="st9" d="M134.1,341.8c0.1-0.1,0.3-0.3,0.4-0.4C134.4,341.5,134.2,341.7,134.1,341.8z"/>
	<path id="XMLID_2_" class="st9" d="M124.6,350.7c0.1-0.1,0.3-0.3,0.4-0.4C124.9,350.4,124.7,350.6,124.6,350.7z"/>
	<path id="XMLID_1_" class="st9" d="M124.1,351c0.1-0.1,0.3-0.3,0.4-0.4C124.5,350.8,124.3,351,124.1,351z"/>
</g>
</svg>
