<?xml version="1.0" encoding="utf-8"?>
<!-- Generator: Adobe Illustrator 19.0.0, SVG Export Plug-In . SVG Version: 6.00 Build 0)  -->
<svg version="1.1" id="Layer_1" xmlns="http://www.w3.org/2000/svg" xmlns:xlink="http://www.w3.org/1999/xlink" x="0px" y="0px"
	 viewBox="0 0 425.2 425.2" style="enable-background:new 0 0 425.2 425.2;" xml:space="preserve">
<style type="text/css">
	.st0{fill-rule:evenodd;clip-rule:evenodd;fill:#189C55;}
	.st1{fill-rule:evenodd;clip-rule:evenodd;fill:#FFDC34;}
	.st2{fill-rule:evenodd;clip-rule:evenodd;fill:#5785C4;}
	.st3{fill-rule:evenodd;clip-rule:evenodd;fill:#FFFFFF;}
	.st4{fill-rule:evenodd;clip-rule:evenodd;fill:#CCC9C9;}
	.st5{fill:#EFEFEF;}
	.st6{fill:#DD4C3E;}
	.st7{fill:#812D28;}
</style>
<g id="XMLID_2_">
	<path id="XMLID_16_" class="st0" d="M4,387V84.3c0-17.6,14.3-31.9,31.9-31.9h302.6L4,387z"/>
	<path id="XMLID_15_" class="st1" d="M4,393.3V387L338.5,52.5h6.4c17.6,0,31.9,14.3,31.9,31.9v6.4L42.2,425.2h-6.4
		C18.3,425.2,4,410.9,4,393.3z"/>
	<polygon id="XMLID_14_" class="st2" points="42.2,425.2 190.4,277.1 338.5,425.2 	"/>
	<path id="XMLID_13_" class="st3" d="M338.5,425.2L188.1,274.8l38.2-38.2L376.7,387v6.4c0,17.6-14.3,31.9-31.9,31.9H338.5z"/>
	<polygon id="XMLID_12_" class="st4" points="376.7,387 228.6,238.8 376.7,90.7 	"/>
	<path id="XMLID_11_" class="st5" d="M70.5,93.7c19-8.7,42.7-5.1,58.1,9.1c-4.8,4.9-9.8,9.7-14.7,14.5c-15.4-15.3-44.3-8-51.6,12.2
		c-9.4,19.9,6.2,46.1,28.4,46.3c14.5,1.7,29-8,32.1-22.5c-10.1,0-20.3-0.1-30.4,0.1c-0.3-6.2-0.3-12.5-0.2-18.8
		c16.9,0.4,34.3-1,51,0.7c1.3,12.4,0.4,25.6-6.3,36.4c-10.5,19.5-35.1,28-56,23c-25.8-5.4-45.1-31.8-41.6-58.1
		C41.1,118.1,53.6,101.3,70.5,93.7z"/>
	<g id="XMLID_3_">
		<g id="XMLID_6_">
			<g id="XMLID_7_">
				<path id="XMLID_8_" class="st6" d="M311.6,0h12.1c30.2,1.7,59.7,16.5,78,40.8c12,15.3,18.7,34.4,20.2,53.7v7.2
					c-0.7,37.5-24.7,68.2-45.4,97.4c-23.3,32.9-44.8,68.8-50.8,109.4c-1.6,6.9,0.3,16.5-7.9,19.6c-1.9-1.5-4.2-2.8-5.5-4.9
					c-2.4-22.7-8.1-45.1-17.8-65.8c-11-24.1-26.3-46-41.8-67.3c-9.5-12.8-18.4-26.1-25.8-40.2c-11.6-21.2-15.9-46.2-11.2-69.9
					c3.9-18.7,13.7-36.1,27.3-49.6C261.3,12.4,286.1,1.6,311.6,0z M309.3,66c-14.3,3.2-26.4,15.9-27.6,30.7
					c-1.5,13.8,6.6,27.8,19,33.9c13.4,7.1,31,4.9,42.2-5.3c10.5-9.3,14.3-25.2,8.8-38.2C345.2,70.9,326,61.7,309.3,66z"/>
			</g>
		</g>
		<g id="XMLID_4_">
			<path id="XMLID_5_" class="st7" d="M309.3,66c16.8-4.3,36,4.9,42.4,21.1c5.5,12.9,1.7,28.9-8.8,38.2
				c-11.2,10.3-28.8,12.4-42.2,5.3c-12.4-6.1-20.5-20.1-19-33.9C282.9,81.9,294.9,69.2,309.3,66z"/>
		</g>
	</g>
</g>
</svg>
