<?xml version="1.0" encoding="utf-8"?>
<!-- Generator: Adobe Illustrator 19.0.0, SVG Export Plug-In . SVG Version: 6.00 Build 0)  -->
<svg version="1.1" id="Layer_1" xmlns="http://www.w3.org/2000/svg" xmlns:xlink="http://www.w3.org/1999/xlink" x="0px" y="0px"
	 viewBox="0 0 425.2 425.2" style="enable-background:new 0 0 425.2 425.2;" xml:space="preserve">
<g xmlns="http://www.w3.org/2000/svg">
    <linearGradient id="SVGID_1_" gradientUnits="userSpaceOnUse" x1="66.7" y1="730.2" x2="66.7" y2="701.6" gradientTransform="matrix(1.98 0 0 1.98 103.05 -1302.84)"><stop offset="0" style="stop-color:#2075BC"/><stop offset="1" style="stop-color:#29AAE1"/></linearGradient><polygon
        fill="url(#SVGID_1_)"
        points="251.1,86.4 251.1,86.3 251.1,86.4 251,86.3 251,86.4 235.1,92.7 219.1,86.4 219.1,86.3 219,86.4 219,86.3 219,86.4 203,92.8 203,142.9 219,136.8 235.1,142.9 235.1,142.9 235.1,142.9 235.1,142.9 235.1,142.9 251.1,136.8 267.2,142.9 267.2,92.8"/>
    <g>
        <linearGradient id="SVGID_2_" gradientUnits="userSpaceOnUse" x1="54.6" y1="730.2" x2="54.6" y2="701.6" gradientTransform="matrix(1.98 0 0 1.98 103.05 -1302.84)"><stop offset="0" style="stop-color:#0A6AA8"/><stop offset="1" style="stop-color:#1699C8"/></linearGradient><polygon fill="url(#SVGID_2_)" points="203,92.8 203,142.9 219.1,136.8 219.1,86.3"/>
        <linearGradient id="SVGID_3_" gradientUnits="userSpaceOnUse" x1="62.6" y1="730.2" x2="62.6" y2="701.6" gradientTransform="matrix(1.98 0 0 1.98 103.05 -1302.84)"><stop offset="0" style="stop-color:#2075BC"/><stop offset="1" style="stop-color:#29AAE1"/></linearGradient><polygon fill="url(#SVGID_3_)" points="235.1,92.8 235.1,142.9 219,136.8 219,86.3"/>
        <linearGradient id="SVGID_4_" gradientUnits="userSpaceOnUse" x1="70.7" y1="730.2" x2="70.7" y2="701.6" gradientTransform="matrix(1.98 0 0 1.98 103.05 -1302.84)"><stop offset="0" style="stop-color:#0A6AA8"/><stop offset="1" style="stop-color:#1699C8"/></linearGradient><polygon fill="url(#SVGID_4_)" points="235.1,92.8 235.1,142.9 251.1,136.8 251.1,86.3"/>
        <linearGradient id="SVGID_5_" gradientUnits="userSpaceOnUse" x1="78.8" y1="730.2" x2="78.8" y2="701.6" gradientTransform="matrix(1.98 0 0 1.98 103.05 -1302.84)"><stop offset="0" style="stop-color:#2075BC"/><stop offset="1" style="stop-color:#29AAE1"/></linearGradient><polygon fill="url(#SVGID_5_)" points="267.2,92.8 267.2,142.9 251,136.8 251,86.3"/></g>
    <g>
        <g>
            <g>
                <defs><path
                    id="SVGID_6_"
                    d="M258 115.7c-0.6-1.7-0.4-4.6-0.7-5c-1.9-2.6-8.7-3-11.8-6.4c0.5-1.7-0.6-3-1.7-4.1 c-1.7-1.2-4-0.7-5.8-0.2c-2-0.4-3.9-1.2-5.9-1.7c-4.4-0.5-8.8 2.6-8.8 2.6c-3.2 2-8.1 6.2-10.5 8.6c0.6 0.1 1.2-0.4 1.9-0.4 l4.6-1.2c-1.9 1.6-5.9 4.3-7.1 6.5c1.4-0.5 4.4-2.1 5.9-2.3c-1.3 1.1-4 3.3-4.9 4.7c0.1 0.1 0 0.2 0 0.3 c1.1-0.6 3.8-2.2 5.1-2.3c-1.3 1.3-3.6 3.9-4.1 5.6c1.1-0.7 3.9-2.2 5.1-2.6c-0.3 0.7-0.9 1.2-1.3 1.8c-0.6 0.9-1.9 2-1.9 3.1 c1-0.9 2.2-1.7 3.4-2.3c-0.5 1.1-1.5 2-1.8 3.4c0.8-0.8 2.3-1.2 3.3-1.5l-0.1 0.1c-0.1 0.1-1.2 0.9-2 1.8 c0.7 0 0.2-0.1 1.1 0.1h0.5c-0.2 0.1-0.5 0.3-0.8 0.4l0 0c-0.4 0.2-0.9 0.5-1.3 0.7c1.9 2.4 4.2 4.4 6.9 5.7 c3.5 1.7 7.3 2.3 11.2 1.8c0-0.2-0.1-0.4-0.2-0.7l0 0l0 0c-0.1-0.3-0.2-0.5-0.2-0.8l0 0l0 0c1.3-2.4 0.6-6.6 4-8.3 c2.3-1.2 2.5-1.8 5.1-1.3c1.4 0.3 4.5 1.3 5.9 1c1.3-0.7 2-1.1 3.2-1.9c1.4 0.3 1.9 0.1 2.4-0.6c-0.5 0.7 0.9-2.6 1.5-3.8 L258 115.7z"/></defs>
                <clipPath id="SVGID_7_"><use xmlns:xlink="http://www.w3.org/1999/xlink" xlink:href="#SVGID_6_" overflow="visible"/></clipPath><ellipse clip-path="url(#SVGID_7_)" fill="#FFFFFF" cx="235.1" cy="115.9" rx="29.8" ry="20.2"/></g>
        </g>
        <g>
            <g>
                <defs><path
                    id="SVGID_8_"
                    d="M258 115.7c-0.6-1.7-0.4-4.6-0.7-5c-1.9-2.6-8.7-3-11.8-6.4c0.5-1.7-0.6-3-1.7-4.1 c-1.7-1.2-4-0.7-5.8-0.2c-2-0.4-3.9-1.2-5.9-1.7c-4.4-0.5-8.8 2.6-8.8 2.6c-3.2 2-8.1 6.2-10.5 8.6c0.6 0.1 1.2-0.4 1.9-0.4 l4.6-1.2c-1.9 1.6-5.9 4.3-7.1 6.5c1.4-0.5 4.4-2.1 5.9-2.3c-1.3 1.1-4 3.3-4.9 4.7c0.1 0.1 0 0.2 0 0.3 c1.1-0.6 3.8-2.2 5.1-2.3c-1.3 1.3-3.6 3.9-4.1 5.6c1.1-0.7 3.9-2.2 5.1-2.6c-0.3 0.7-0.9 1.2-1.3 1.8c-0.6 0.9-1.9 2-1.9 3.1 c1-0.9 2.2-1.7 3.4-2.3c-0.5 1.1-1.5 2-1.8 3.4c0.8-0.8 2.3-1.2 3.3-1.5l-0.1 0.1c-0.1 0.1-1.2 0.9-2 1.8 c0.7 0 0.2-0.1 1.1 0.1h0.5c-0.2 0.1-0.5 0.3-0.8 0.4l0 0c-0.4 0.2-0.9 0.5-1.3 0.7c1.9 2.4 4.2 4.4 6.9 5.7 c3.5 1.7 7.3 2.3 11.2 1.8c0-0.2-0.1-0.4-0.2-0.7l0 0l0 0c-0.1-0.3-0.2-0.5-0.2-0.8l0 0l0 0c1.3-2.4 0.6-6.6 4-8.3 c2.3-1.2 2.5-1.8 5.1-1.3c1.4 0.3 4.5 1.3 5.9 1c1.3-0.7 2-1.1 3.2-1.9c1.4 0.3 1.9 0.1 2.4-0.6c-0.5 0.7 0.9-2.6 1.5-3.8 L258 115.7z"/></defs>
                <clipPath id="SVGID_9_"><use xmlns:xlink="http://www.w3.org/1999/xlink" xlink:href="#SVGID_8_" overflow="visible"/></clipPath><polygon clip-path="url(#SVGID_9_)" fill="#F2F2F2" points="203.4,93.7 203.4,144.4 219.3,138.1 219.3,87.3"/></g>
        </g>
        <g>
            <g>
                <defs><path
                    id="SVGID_10_"
                    d="M258 115.7c-0.6-1.7-0.4-4.6-0.7-5c-1.9-2.6-8.7-3-11.8-6.4c0.5-1.7-0.6-3-1.7-4.1 c-1.7-1.2-4-0.7-5.8-0.2c-2-0.4-3.9-1.2-5.9-1.7c-4.4-0.5-8.8 2.6-8.8 2.6c-3.2 2-8.1 6.2-10.5 8.6c0.6 0.1 1.2-0.4 1.9-0.4 l4.6-1.2c-1.9 1.6-5.9 4.3-7.1 6.5c1.4-0.5 4.4-2.1 5.9-2.3c-1.3 1.1-4 3.3-4.9 4.7c0.1 0.1 0 0.2 0 0.3 c1.1-0.6 3.8-2.2 5.1-2.3c-1.3 1.3-3.6 3.9-4.1 5.6c1.1-0.7 3.9-2.2 5.1-2.6c-0.3 0.7-0.9 1.2-1.3 1.8c-0.6 0.9-1.9 2-1.9 3.1 c1-0.9 2.2-1.7 3.4-2.3c-0.5 1.1-1.5 2-1.8 3.4c0.8-0.8 2.3-1.2 3.3-1.5l-0.1 0.1c-0.1 0.1-1.2 0.9-2 1.8 c0.7 0 0.2-0.1 1.1 0.1h0.5c-0.2 0.1-0.5 0.3-0.8 0.4l0 0c-0.4 0.2-0.9 0.5-1.3 0.7c1.9 2.4 4.2 4.4 6.9 5.7 c3.5 1.7 7.3 2.3 11.2 1.8c0-0.2-0.1-0.4-0.2-0.7l0 0l0 0c-0.1-0.3-0.2-0.5-0.2-0.8l0 0l0 0c1.3-2.4 0.6-6.6 4-8.3 c2.3-1.2 2.5-1.8 5.1-1.3c1.4 0.3 4.5 1.3 5.9 1c1.3-0.7 2-1.1 3.2-1.9c1.4 0.3 1.9 0.1 2.4-0.6c-0.5 0.7 0.9-2.6 1.5-3.8 L258 115.7z"/></defs>
                <clipPath id="SVGID_11_"><use xmlns:xlink="http://www.w3.org/1999/xlink" xlink:href="#SVGID_10_" overflow="visible"/></clipPath><polygon clip-path="url(#SVGID_11_)" fill="#FFFFFF" points="235.2,93.7 235.2,144.4 219.2,138.1 219.2,87.3"/></g>
        </g>
        <g>
            <g>
                <defs><path
                    id="SVGID_12_"
                    d="M258 115.7c-0.6-1.7-0.4-4.6-0.7-5c-1.9-2.6-8.7-3-11.8-6.4c0.5-1.7-0.6-3-1.7-4.1 c-1.7-1.2-4-0.7-5.8-0.2c-2-0.4-3.9-1.2-5.9-1.7c-4.4-0.5-8.8 2.6-8.8 2.6c-3.2 2-8.1 6.2-10.5 8.6c0.6 0.1 1.2-0.4 1.9-0.4 l4.6-1.2c-1.9 1.6-5.9 4.3-7.1 6.5c1.4-0.5 4.4-2.1 5.9-2.3c-1.3 1.1-4 3.3-4.9 4.7c0.1 0.1 0 0.2 0 0.3 c1.1-0.6 3.8-2.2 5.1-2.3c-1.3 1.3-3.6 3.9-4.1 5.6c1.1-0.7 3.9-2.2 5.1-2.6c-0.3 0.7-0.9 1.2-1.3 1.8c-0.6 0.9-1.9 2-1.9 3.1 c1-0.9 2.2-1.7 3.4-2.3c-0.5 1.1-1.5 2-1.8 3.4c0.8-0.8 2.3-1.2 3.3-1.5l-0.1 0.1c-0.1 0.1-1.2 0.9-2 1.8 c0.7 0 0.2-0.1 1.1 0.1h0.5c-0.2 0.1-0.5 0.3-0.8 0.4l0 0c-0.4 0.2-0.9 0.5-1.3 0.7c1.9 2.4 4.2 4.4 6.9 5.7 c3.5 1.7 7.3 2.3 11.2 1.8c0-0.2-0.1-0.4-0.2-0.7l0 0l0 0c-0.1-0.3-0.2-0.5-0.2-0.8l0 0l0 0c1.3-2.4 0.6-6.6 4-8.3 c2.3-1.2 2.5-1.8 5.1-1.3c1.4 0.3 4.5 1.3 5.9 1c1.3-0.7 2-1.1 3.2-1.9c1.4 0.3 1.9 0.1 2.4-0.6c-0.5 0.7 0.9-2.6 1.5-3.8 L258 115.7z"/></defs>
                <clipPath id="SVGID_13_"><use xmlns:xlink="http://www.w3.org/1999/xlink" xlink:href="#SVGID_12_" overflow="visible"/></clipPath><polygon clip-path="url(#SVGID_13_)" fill="#F2F2F2" points="235.2,93.7 235.2,144.4 251,138.1 251,87.3"/></g>
        </g>
        <g>
            <g>
                <defs><path
                    id="SVGID_14_"
                    d="M258 115.7c-0.6-1.7-0.4-4.6-0.7-5c-1.9-2.6-8.7-3-11.8-6.4c0.5-1.7-0.6-3-1.7-4.1 c-1.7-1.2-4-0.7-5.8-0.2c-2-0.4-3.9-1.2-5.9-1.7c-4.4-0.5-8.8 2.6-8.8 2.6c-3.2 2-8.1 6.2-10.5 8.6c0.6 0.1 1.2-0.4 1.9-0.4 l4.6-1.2c-1.9 1.6-5.9 4.3-7.1 6.5c1.4-0.5 4.4-2.1 5.9-2.3c-1.3 1.1-4 3.3-4.9 4.7c0.1 0.1 0 0.2 0 0.3 c1.1-0.6 3.8-2.2 5.1-2.3c-1.3 1.3-3.6 3.9-4.1 5.6c1.1-0.7 3.9-2.2 5.1-2.6c-0.3 0.7-0.9 1.2-1.3 1.8c-0.6 0.9-1.9 2-1.9 3.1 c1-0.9 2.2-1.7 3.4-2.3c-0.5 1.1-1.5 2-1.8 3.4c0.8-0.8 2.3-1.2 3.3-1.5l-0.1 0.1c-0.1 0.1-1.2 0.9-2 1.8 c0.7 0 0.2-0.1 1.1 0.1h0.5c-0.2 0.1-0.5 0.3-0.8 0.4l0 0c-0.4 0.2-0.9 0.5-1.3 0.7c1.9 2.4 4.2 4.4 6.9 5.7 c3.5 1.7 7.3 2.3 11.2 1.8c0-0.2-0.1-0.4-0.2-0.7l0 0l0 0c-0.1-0.3-0.2-0.5-0.2-0.8l0 0l0 0c1.3-2.4 0.6-6.6 4-8.3 c2.3-1.2 2.5-1.8 5.1-1.3c1.4 0.3 4.5 1.3 5.9 1c1.3-0.7 2-1.1 3.2-1.9c1.4 0.3 1.9 0.1 2.4-0.6c-0.5 0.7 0.9-2.6 1.5-3.8 L258 115.7z"/></defs>
                <clipPath id="SVGID_15_"><use xmlns:xlink="http://www.w3.org/1999/xlink" xlink:href="#SVGID_14_" overflow="visible"/></clipPath><polygon clip-path="url(#SVGID_15_)" fill="#FFFFFF" points="267,93.7 267,144.4 251,138.1 251,87.3"/></g>
        </g>
    </g>
</g>
</svg>
