<?xml version="1.0" encoding="UTF-8" standalone="no"?>
<svg width="164px" height="36px" viewBox="0 0 164 36" version="1.1" xmlns="http://www.w3.org/2000/svg" xmlns:xlink="http://www.w3.org/1999/xlink">
    <!-- Generator: Sketch 3.7.2 (28276) - http://www.bohemiancoding.com/sketch -->
    <title>pclogo-svg</title>
    <desc>Created with Sketch.</desc>
    <defs>
        <path d="M0.194330769,14.21592 L0.194330769,0.239123077 L5.68135385,0.239123077 C8.42531538,0.239123077 9.96103846,2.16683538 9.96103846,4.45091077 C9.96103846,6.73498385 8.38458462,8.66270308 5.68135385,8.66270308 L1.89295385,8.66270308 L1.89295385,14.21592 L0.194330769,14.21592 L0.194330769,14.21592 Z M8.20045385,4.45091077 C8.20045385,2.87955 7.09405385,1.78926923 5.47603846,1.78926923 L1.89295385,1.78926923 L1.89295385,7.11255231 L5.47603846,7.11255231 C7.09405385,7.11255231 8.20045385,6.02227154 8.20045385,4.45091077 L8.20045385,4.45091077 Z M10.7204077,9.14463231 C10.7204077,6.21147923 12.6040154,3.84255923 15.6143769,3.84255923 C18.6238846,3.84255923 20.5083231,6.21147923 20.5083231,9.14463231 C20.5083231,12.0786323 18.6238846,14.4670662 15.6143769,14.4670662 C12.6040154,14.4670662 10.7204077,12.0786323 10.7204077,9.14463231 L10.7204077,9.14463231 Z M18.8903077,9.14463231 C18.8903077,7.09049308 17.7236538,5.24677385 15.6143769,5.24677385 C13.5050769,5.24677385 12.3172385,7.09049308 12.3172385,9.14463231 C12.3172385,11.2191346 13.5050769,13.0637031 15.6143769,13.0637031 C17.7236538,13.0637031 18.8903077,11.2191346 18.8903077,9.14463231 L18.8903077,9.14463231 Z M21.8209154,9.14463231 C21.8209154,6.14784462 23.8063154,3.84255923 26.7555923,3.84255923 C28.5577385,3.84255923 29.6225769,4.59769615 30.3794077,5.60313 L29.3561538,6.56698846 C28.7011385,5.64555231 27.8611385,5.24677385 26.8379077,5.24677385 C24.7286077,5.24677385 23.4177231,6.90298154 23.4177231,9.14463231 C23.4177231,11.38713 24.7286077,13.0637031 26.8379077,13.0637031 C27.8611385,13.0637031 28.7011385,12.6445592 29.3561538,11.7434862 L30.3794077,12.7073469 C29.6225769,13.7127808 28.5577385,14.4670662 26.7555923,14.4670662 C23.8063154,14.4670662 21.8209154,12.16263 21.8209154,9.14463231 L21.8209154,9.14463231 Z M39.3706154,14.21592 L35.8078846,9.66898385 L34.1694923,11.3243446 L34.1694923,14.21592 L32.6337692,14.21592 L32.6337692,0.239123077 L34.1694923,0.239123077 L34.1694923,9.47977615 L39.3706154,4.09455462 L41.3161385,4.09455462 L36.9338077,8.68391308 L41.3365154,14.21592 L39.3706154,14.21592 L39.3706154,14.21592 Z M41.8091077,9.14463231 C41.8091077,6.21147923 43.8564462,3.84255923 46.6818462,3.84255923 C49.6718538,3.84255923 51.4332692,6.23184231 51.4332692,9.27020538 L51.4332692,9.66898385 L43.4271231,9.66898385 C43.5493154,11.5754908 44.8602,13.1680638 46.9898538,13.1680638 C48.1157538,13.1680638 49.2620308,12.7073469 50.0409231,11.8902715 L50.7774,12.9160685 C49.7948769,13.9223515 48.4636385,14.4670662 46.8464538,14.4670662 C43.9175538,14.4670662 41.8091077,12.3094154 41.8091077,9.14463231 L41.8091077,9.14463231 Z M46.6614923,5.14241077 C44.5530462,5.14241077 43.5085846,6.96492 43.4271231,8.51591769 L49.9179,8.51591769 C49.8975462,7.00734231 48.9141692,5.14241077 46.6614923,5.14241077 L46.6614923,5.14241077 Z M53.9744308,5.47755692 L52.3360385,5.47755692 L52.3360385,4.09455462 L53.9744308,4.09455462 L53.9744308,1.32856154 L55.5093,1.32856154 L55.5093,4.09455462 L57.5159308,4.09455462 L57.5159308,5.47755692 L55.5093,5.47755692 L55.5093,11.7638492 C55.5093,12.5181369 55.8376615,13.0637031 56.5130308,13.0637031 C56.9432077,13.0637031 57.3521769,12.8744931 57.5575154,12.6445592 L58.0080462,13.8179885 C57.6186,14.19471 57.0654,14.4670662 56.1651692,14.4670662 C54.7109077,14.4670662 53.9744308,13.6084177 53.9744308,12.0998423 L53.9744308,5.47755692 L53.9744308,5.47755692 Z M64.4801538,7.23727615 C64.4801538,2.94233538 67.5719538,0.00833076923 71.5029231,0.00833076923 C73.9202077,0.00833076923 75.5984769,1.20212308 76.6845,2.77434 L75.2514462,3.59141308 C74.4725538,2.41798154 73.0598538,1.55847692 71.5029231,1.55847692 C68.5137692,1.55847692 66.2407154,3.90534692 66.2407154,7.23727615 C66.2407154,10.5488446 68.5137692,12.9160685 71.5029231,12.9160685 C73.0598538,12.9160685 74.4725538,12.0786323 75.2514462,10.8839885 L76.7048769,11.7010638 C75.5577462,13.2936369 73.9202077,14.4670662 71.5029231,14.4670662 C67.5719538,14.4670662 64.4801538,11.5339154 64.4801538,7.23727615 L64.4801538,7.23727615 Z M84.6524538,14.21592 L84.6524538,13.0637031 C83.832,13.9851369 82.7060769,14.4670662 81.3756692,14.4670662 C79.6965692,14.4670662 77.9147769,13.3148492 77.9147769,11.1147738 C77.9147769,8.85106154 79.6965692,7.78284231 81.3756692,7.78284231 C82.7272846,7.78284231 83.8532077,8.22234692 84.6524538,9.16584231 L84.6524538,7.34248615 C84.6524538,5.98069615 83.5867846,5.20519846 82.1537308,5.20519846 C80.9658692,5.20519846 80.0037,5.64555231 79.1229923,6.60941077 L78.4068923,5.51913 C79.4708769,4.38812308 80.7410308,3.84255923 82.3590462,3.84255923 C84.4471385,3.84255923 86.1873462,4.80726692 86.1873462,7.25848846 L86.1873462,14.21592 L84.6524538,14.21592 L84.6524538,14.21592 Z M84.6524538,12.0786323 L84.6524538,10.1712762 C84.0585231,9.33384 83.0132308,8.91469615 81.9288923,8.91469615 C80.4949615,8.91469615 79.4912308,9.83613231 79.4912308,11.1351369 C79.4912308,12.4137762 80.4949615,13.3352123 81.9288923,13.3352123 C83.0132308,13.3352123 84.0585231,12.9160685 84.6524538,12.0786323 L84.6524538,12.0786323 Z M88.1345769,12.8744931 L88.9329692,11.7434862 C89.5879846,12.5181369 90.8377846,13.1892762 92.1894,13.1892762 C93.7047692,13.1892762 94.5226846,12.4553515 94.5226846,11.4499177 C94.5226846,8.99784692 88.4001462,10.5072692 88.4001462,6.75534692 C88.4001462,5.18398615 89.7313846,3.84255923 92.0867308,3.84255923 C93.7658538,3.84255923 94.9528615,4.49333308 95.7521077,5.30955923 L95.0351538,6.39984 C94.4412231,5.66591538 93.3560308,5.12119846 92.0867308,5.12119846 C90.7351154,5.12119846 89.8951385,5.81270077 89.8951385,6.71377385 C89.8951385,8.93505923 96.0185308,7.46805923 96.0185308,11.4074931 C96.0185308,13.1052762 94.6872923,14.4670662 92.1283154,14.4670662 C90.5102769,14.4670662 89.1374538,13.9639269 88.1345769,12.8744931 L88.1345769,12.8744931 Z M98.5172769,12.0998423 L98.5172769,5.47755692 L96.8797154,5.47755692 L96.8797154,4.09455462 L98.5172769,4.09455462 L98.5172769,1.32856154 L100.053,1.32856154 L100.053,4.09455462 L102.060462,4.09455462 L102.060462,5.47755692 L100.053,5.47755692 L100.053,11.7638492 C100.053,12.5181369 100.381338,13.0637031 101.056731,13.0637031 C101.486908,13.0637031 101.896708,12.8744931 102.101192,12.6445592 L102.551723,13.8179885 C102.162277,14.19471 101.609931,14.4670662 100.708846,14.4670662 C99.2545846,14.4670662 98.5172769,13.6084177 98.5172769,12.0998423 L98.5172769,12.0998423 Z M104.047569,12.8744931 L104.845985,11.7434862 C105.501854,12.5181369 106.749946,13.1892762 108.102392,13.1892762 C109.617762,13.1892762 110.436531,12.4553515 110.436531,11.4499177 C110.436531,8.99784692 104.313992,10.5072692 104.313992,6.75534692 C104.313992,5.18398615 105.645231,3.84255923 107.999746,3.84255923 C109.678846,3.84255923 110.865854,4.49333308 111.665123,5.30955923 L110.949,6.39984 C110.354238,5.66591538 109.269046,5.12119846 107.999746,5.12119846 C106.648131,5.12119846 105.808154,5.81270077 105.808154,6.71377385 C105.808154,8.93505923 111.930692,7.46805923 111.930692,11.4074931 C111.930692,13.1052762 110.600285,14.4670662 108.040454,14.4670662 C106.423292,14.4670662 105.051323,13.9639269 104.047569,12.8744931 L104.047569,12.8744931 Z" id="path-1"></path>
        <path d="M17.9764708,35.9529412 C27.9045923,35.9529412 35.9529462,27.9046015 35.9529462,17.9764708 C35.9529462,8.04833077 27.9045923,0 17.9764708,0 C8.04834,0 0,8.04833077 0,17.9764708 C0,27.9046015 8.04834,35.9529412 17.9764708,35.9529412 L17.9764708,35.9529412 Z" id="path-3"></path>
        <path d="M11.99649,21.3155538 C7.15860692,21.15369 3.28636154,17.1808823 3.28626462,12.3036346 C3.28616769,7.35360923 7.35359538,3.28617692 12.3036185,3.28626923 C17.1808662,3.28638462 21.1536692,7.15862077 21.3155308,11.9965062 C21.3212538,12.1680254 21.4633385,12.3034754 21.6349385,12.3034754 L24.2581154,12.3034754 C24.4384615,12.3034754 24.5826,12.1543708 24.5778692,11.9740592 C24.4032923,5.34500769 18.9747231,0.0247846154 12.3035562,0.0247384615 C5.51060077,0.0247153846 0.0246946154,5.51060769 0.0247269231,12.30357 C0.0247892308,18.9747277 5.34499846,24.4033015 11.9740754,24.5778577 C12.1543546,24.5826231 12.3034592,24.4384754 12.3034592,24.2581315 L12.3034592,21.6349592 C12.3034592,21.4633454 12.1680092,21.3212769 11.99649,21.3155538 L11.99649,21.3155538 Z M12.3035562,5.20483846 C8.37148385,5.20476923 5.20475308,8.37146538 5.20481769,12.30357 C5.20488,16.1119592 8.20396154,19.2198554 11.9692154,19.3943792 C12.1512854,19.4028208 12.3034592,19.2569146 12.3034592,19.0746831 L12.3034592,16.9930223 C12.3034592,16.8294023 12.1699592,16.6851923 12.0066923,16.6742885 C9.72575769,16.5216992 7.92286154,14.6232277 7.92276462,12.3036669 C7.92267,9.88104692 9.88103077,7.92268385 12.3036508,7.92278077 C14.6232115,7.92287769 16.5216831,9.72577154 16.6742723,12.0067062 C16.6851762,12.1699431 16.8293885,12.3034754 16.9930085,12.3034754 L19.0746692,12.3034754 C19.2569077,12.3034754 19.4028,12.1513015 19.3943538,11.9692315 C19.2198462,8.20397538 16.1119454,5.20488462 12.3035562,5.20483846 L12.3035562,5.20483846 Z" id="path-5"></path>
    </defs>
    <g id="Page-1" stroke="none" stroke-width="1" fill="none" fill-rule="evenodd">
        <g id="pclogo-svg">
            <g id="Page-1">
                <g id="Group-3" transform="translate(51.923077, 10.846154)">
                    <mask id="mask-2" fill="white">
                        <use xlink:href="#path-1"></use>
                    </mask>
                    <g id="Clip-2"></g>
                    <polygon id="Fill-1" fill="#FFFFFF" mask="url(#mask-2)" points="-0.959515385 -1.14551538 113.084538 -1.14551538 113.084538 15.6209123 -0.959515385 15.6209123"></polygon>
                </g>
                <g id="Group-6">
                    <mask id="mask-4" fill="white">
                        <use xlink:href="#path-3"></use>
                    </mask>
                    <g id="Clip-5"></g>
                    <polygon id="Fill-4" fill="#F44336" mask="url(#mask-4)" points="-1.15384615 -1.15384615 37.1067923 -1.15384615 37.1067923 37.1067872 -1.15384615 37.1067872"></polygon>
                </g>
                <g id="Group-9" transform="translate(5.769231, 5.769231)">
                    <mask id="mask-6" fill="white">
                        <use xlink:href="#path-5"></use>
                    </mask>
                    <g id="Clip-8"></g>
                    <polygon id="Fill-7" fill="#FEFEFE" mask="url(#mask-6)" points="-1.12911923 -1.12910769 25.7318308 -1.12910769 25.7318308 25.7318192 -1.12911923 25.7318192"></polygon>
                </g>
            </g>
        </g>
    </g>
</svg>