<?xml version="1.0" encoding="utf-8"?>
<!-- Generator: Adobe Illustrator 19.0.0, SVG Export Plug-In . SVG Version: 6.00 Build 0)  -->
<svg version="1.1" id="Layer_1" xmlns="http://www.w3.org/2000/svg" xmlns:xlink="http://www.w3.org/1999/xlink" x="0px" y="0px"
	 viewBox="0 0 425.2 425.2" style="enable-background:new 0 0 425.2 425.2;" xml:space="preserve">
<style type="text/css">
	.st0{filter:url(#Adobe_OpacityMaskFilter);}
	.st1{fill:#FFFFFF;}
	.st2{mask:url(#mask-4_1_);fill:#E9463A;}
	.st3{filter:url(#Adobe_OpacityMaskFilter_1_);}
	.st4{mask:url(#mask-6_1_);fill:#FFFFFF;}
</style>
<g id="Page-1">
	<g id="Group-6">
		<g id="Clip-5">
		</g>
		<defs>
			<filter id="Adobe_OpacityMaskFilter" filterUnits="userSpaceOnUse" x="10.2" y="11" width="404.9" height="404.9">
				<feColorMatrix  type="matrix" values="1 0 0 0 0  0 1 0 0 0  0 0 1 0 0  0 0 0 1 0"/>
			</filter>
		</defs>
		<mask maskUnits="userSpaceOnUse" x="10.2" y="11" width="404.9" height="404.9" id="mask-4_1_">
			<g id="XMLID_7_" class="st0">
				<path id="path-3_1_" class="st1" d="M212.6,403.7c105.1,0,190.2-85.2,190.2-190.2S317.7,23.2,212.6,23.2S22.4,108.4,22.4,213.4
					S107.5,403.7,212.6,403.7L212.6,403.7z"/>
			</g>
		</mask>
		<polygon id="Fill-4" class="st2" points="10.2,11 415,11 415,415.9 10.2,415.9 		"/>
	</g>
	<g id="Group-9" transform="translate(5.769231, 5.769231)">
		<g id="Clip-8">
		</g>
		<defs>
			<filter id="Adobe_OpacityMaskFilter_1_" filterUnits="userSpaceOnUse" x="65.7" y="66.5" width="284.2" height="284.2">
				<feColorMatrix  type="matrix" values="1 0 0 0 0  0 1 0 0 0  0 0 1 0 0  0 0 0 1 0"/>
			</filter>
		</defs>
		<mask maskUnits="userSpaceOnUse" x="65.7" y="66.5" width="284.2" height="284.2" id="mask-6_1_">
			<g id="XMLID_3_" class="st3">
				<path id="path-5_1_" class="st1" d="M204.6,304.1c-51.2-1.7-92.2-43.8-92.2-95.4c0-52.4,43-95.4,95.4-95.4
					c51.6,0,93.7,41,95.4,92.2c0.1,1.8,1.6,3.2,3.4,3.2h27.8c1.9,0,3.4-1.6,3.4-3.5c-1.8-70.1-59.3-126.4-129.9-126.4
					c-71.9,0-129.9,58.1-129.9,129.9c0,70.6,56.3,128,126.5,129.9c1.9,0.1,3.5-1.5,3.5-3.4v-27.8
					C207.8,305.6,206.4,304.1,204.6,304.1L204.6,304.1z M207.8,133.6c-41.6,0-75.1,33.5-75.1,75.1c0,40.3,31.7,73.2,71.6,75
					c1.9,0.1,3.5-1.5,3.5-3.4v-22c0-1.7-1.4-3.3-3.1-3.4c-24.1-1.6-43.2-21.7-43.2-46.3c0-25.6,20.7-46.4,46.4-46.4
					c24.5,0,44.6,19.1,46.3,43.2c0.1,1.7,1.6,3.1,3.4,3.1h22c1.9,0,3.5-1.6,3.4-3.5C281,165.3,248.2,133.6,207.8,133.6L207.8,133.6z
					"/>
			</g>
		</mask>
		<polygon id="Fill-7" class="st4" points="65.7,66.5 350,66.5 350,350.8 65.7,350.8 		"/>
	</g>
</g>
</svg>
