<?xml version="1.0" encoding="utf-8"?>
<!-- Generator: Adobe Illustrator 19.0.0, SVG Export Plug-In . SVG Version: 6.00 Build 0)  -->
<svg version="1.1" id="Layer_1" xmlns="http://www.w3.org/2000/svg" xmlns:xlink="http://www.w3.org/1999/xlink" x="0px" y="0px"
	 viewBox="0 0 425.2 425.2" style="enable-background:new 0 0 425.2 425.2;" xml:space="preserve">
<style type="text/css">
	.st0{fill:#FFFFFF;}
	.st1{fill:none;stroke:#010202;stroke-width:10;}
	.st2{fill:none;stroke:#010202;stroke-width:10;stroke-linecap:round;stroke-linejoin:round;}
	.st3{fill:#E84B1E;}
	.st4{fill:none;stroke:#E84B1E;stroke-width:10;}
	.st5{fill:none;stroke:#010202;stroke-width:10;stroke-linecap:round;}
</style>
<g id="XMLID_1_">
	<g id="g24" transform="translate(265.3481,392.7275)">
		<path id="path26" class="st0" d="M-4.5-146.7c26.1,0,47.2,25.5,47.2,57c0,31.5-21.1,57-47.2,57s-47.2-25.5-47.2-57
			C-51.7-121.2-30.6-146.7-4.5-146.7"/>
	</g>
	<g id="g28" transform="translate(265.3481,392.7275)">
		<path id="path30" class="st1" d="M-4.5-146.7c26.1,0,47.2,25.5,47.2,57c0,31.5-21.1,57-47.2,57s-47.2-25.5-47.2-57
			C-51.7-121.2-30.6-146.7-4.5-146.7z"/>
	</g>
	<g id="g32" transform="translate(258.4063,376.5361)">
		<path id="path34" class="st0" d="M-71.8,42.8c0.7-2.1,1.2-4.3,1.2-6.6c0-14.6-14.6-26.4-32.5-26.4s-32.5,11.8-32.5,26.4
			c0,2.3,0.5,4.5,1.2,6.6H-71.8z"/>
	</g>
	<g id="g36" transform="translate(258.4063,376.5361)">
		<path id="path38" class="st2" d="M-71.8,42.8c0.7-2.1,1.2-4.3,1.2-6.6c0-14.6-14.6-26.4-32.5-26.4s-32.5,11.8-32.5,26.4
			c0,2.3,0.5,4.5,1.2,6.6H-71.8z"/>
	</g>
	<g id="g40" transform="translate(269.0518,376.5361)">
		<path id="path42" class="st0" d="M31.5,42.8c0.7-2.1,1.1-4.3,1.1-6.6c0-14.6-14.6-26.4-32.5-26.4s-32.5,11.8-32.5,26.4
			c0,2.3,0.5,4.5,1.1,6.6H31.5z"/>
	</g>
	<g id="g44" transform="translate(269.0518,376.5361)">
		<path id="path46" class="st2" d="M31.5,42.8c0.7-2.1,1.1-4.3,1.1-6.6c0-14.6-14.6-26.4-32.5-26.4s-32.5,11.8-32.5,26.4
			c0,2.3,0.5,4.5,1.1,6.6H31.5z"/>
	</g>
	<g id="g48" transform="translate(252.4888,403.9858)">
		<path id="path50" class="st0" d="M-129.3-278.5c0,16-13,28.9-28.9,28.9c-16,0-28.9-12.9-28.9-28.9s12.9-28.9,28.9-28.9
			C-142.2-307.4-129.3-294.5-129.3-278.5"/>
	</g>
	<g id="g52" transform="translate(252.4888,403.9858)">
		<path id="path54" class="st1" d="M-129.3-278.5c0,16-13,28.9-28.9,28.9c-16,0-28.9-12.9-28.9-28.9s12.9-28.9,28.9-28.9
			C-142.2-307.4-129.3-294.5-129.3-278.5z"/>
	</g>
	<g id="g56" transform="translate(274.5913,403.9858)">
		<path id="path58" class="st0" d="M85.2-278.5c0,16-13,28.9-28.9,28.9c-16,0-28.9-12.9-28.9-28.9s12.9-28.9,28.9-28.9
			C72.3-307.4,85.2-294.5,85.2-278.5"/>
	</g>
	<g id="g60" transform="translate(274.5913,403.9858)">
		<path id="path62" class="st1" d="M85.2-278.5c0,16-13,28.9-28.9,28.9c-16,0-28.9-12.9-28.9-28.9s12.9-28.9,28.9-28.9
			C72.3-307.4,85.2-294.5,85.2-278.5z"/>
	</g>
	<g id="g64" transform="translate(268.3286,413.4697)">
		<path id="path66" class="st2" d="M24.5-389.5l-57.9-13.6l-21.3,67.2"/>
	</g>
	<g id="g68" transform="translate(256.2495,392.7275)">
		<path id="path70" class="st0" d="M-92.8-146.7c26.1,0,47.2,25.5,47.2,57c0,31.5-21.1,57-47.2,57c-26.1,0-47.2-25.5-47.2-57
			C-140-121.2-118.9-146.7-92.8-146.7"/>
	</g>
	<g id="g72" transform="translate(256.2495,392.7275)">
		<path id="path74" class="st1" d="M-92.8-146.7c26.1,0,47.2,25.5,47.2,57c0,31.5-21.1,57-47.2,57c-26.1,0-47.2-25.5-47.2-57
			C-140-121.2-118.9-146.7-92.8-146.7z"/>
	</g>
	<g id="g76" transform="translate(272.6641,413.0327)">
		<path id="path78" class="st0" d="M66.5-384.4c0,12.6-10.2,22.8-22.8,22.8c-12.6,0-22.8-10.2-22.8-22.8c0-12.6,10.2-22.8,22.8-22.8
			C56.3-407.2,66.5-397,66.5-384.4"/>
	</g>
	<g id="g80" transform="translate(272.6641,413.0327)">
		<path id="path82" class="st1" d="M66.5-384.4c0,12.6-10.2,22.8-22.8,22.8c-12.6,0-22.8-10.2-22.8-22.8c0-12.6,10.2-22.8,22.8-22.8
			C56.3-407.2,66.5-397,66.5-384.4z"/>
	</g>
	<g id="g84" transform="translate(259.2842,376.5332)">
		<path id="path86" class="st0" d="M-63.3,42.8h32C-2.9,28.1,18.2-25,18.2-88.4c0-74.8-29.3-135.5-65.5-135.5
			c-36.2,0-65.5,60.7-65.5,135.5C-112.8-25-91.8,28.1-63.3,42.8"/>
	</g>
	<g id="g88" transform="translate(259.2842,376.5332)">
		<path id="path90" class="st1" d="M-63.3,42.8h32C-2.9,28.1,18.2-25,18.2-88.4c0-74.8-29.3-135.5-65.5-135.5
			c-36.2,0-65.5,60.7-65.5,135.5C-112.8-25-91.8,28.1-63.3,42.8z"/>
	</g>
	<g id="g92" transform="translate(273.0176,400.2695)">
		<path id="path94" class="st0" d="M70-235c0,47.2-58.7,85.5-131,85.5c-72.4,0-131-38.3-131-85.5s58.7-85.5,131-85.5
			C11.3-320.5,70-282.2,70-235"/>
	</g>
	<g id="g96" transform="translate(273.0176,400.2695)">
		<path id="path98" class="st1" d="M70-235c0,47.2-58.7,85.5-131,85.5c-72.4,0-131-38.3-131-85.5s58.7-85.5,131-85.5
			C11.3-320.5,70-282.2,70-235z"/>
	</g>
	<g id="g100" transform="translate(257.5601,376.5361)">
		<path id="path102" class="st2" d="M-80.1,42.8h70.6"/>
	</g>
	<g id="g156" transform="translate(257.9604,401.8286)">
		<path id="path158" class="st3" d="M-76.2-253.3c0,8.5-6.9,15.3-15.3,15.3c-8.5,0-15.3-6.9-15.3-15.3c0-8.5,6.9-15.3,15.3-15.3
			C-83-268.6-76.2-261.7-76.2-253.3"/>
	</g>
	<g id="g160" transform="translate(257.9604,401.8286)">
		<path id="path162" class="st4" d="M-76.2-253.3c0,8.5-6.9,15.3-15.3,15.3c-8.5,0-15.3-6.9-15.3-15.3c0-8.5,6.9-15.3,15.3-15.3
			C-83-268.6-76.2-261.7-76.2-253.3z"/>
	</g>
	<g id="g164" transform="translate(266.583,401.8286)">
		<path id="path166" class="st3" d="M7.5-253.3c0,8.5-6.9,15.3-15.3,15.3c-8.4,0-15.3-6.9-15.3-15.3c0-8.5,6.9-15.3,15.3-15.3
			C0.7-268.6,7.5-261.7,7.5-253.3"/>
	</g>
	<g id="g168" transform="translate(266.583,401.8286)">
		<path id="path170" class="st4" d="M7.5-253.3c0,8.5-6.9,15.3-15.3,15.3c-8.4,0-15.3-6.9-15.3-15.3c0-8.5,6.9-15.3,15.3-15.3
			C0.7-268.6,7.5-261.7,7.5-253.3z"/>
	</g>
	<g id="g172" transform="translate(256.6104,396.5933)">
		<path id="path174" class="st5" d="M-89.3-192c11.4,11.4,29.8,13.6,45.1,13.6"/>
	</g>
	<g id="g176" transform="translate(265.0654,396.5933)">
		<path id="path178" class="st5" d="M-7.2-192c-11.4,11.4-29.8,13.6-45.1,13.6"/>
	</g>
</g>
</svg>
