<?xml version="1.0" encoding="utf-8"?>
<!-- Generator: Adobe Illustrator 19.0.0, SVG Export Plug-In . SVG Version: 6.00 Build 0)  -->
<svg version="1.1" id="Layer_1" xmlns="http://www.w3.org/2000/svg" xmlns:xlink="http://www.w3.org/1999/xlink" x="0px" y="0px"
	 viewBox="0 0 425.2 425.2" style="enable-background:new 0 0 425.2 425.2;" xml:space="preserve">
<style type="text/css">
	.st0{fill:#007777;}
	.st1{fill-rule:evenodd;clip-rule:evenodd;fill:#95C11F;}
	.st2{fill-rule:evenodd;clip-rule:evenodd;fill:#007777;}
</style>
<g id="XMLID_15_">
	<g id="XMLID_25_">
		<path id="XMLID_39_" class="st0" d="M60.3,281.9c-5.7-1.6-14-3.1-21.4-3.1c-6.8,0-10.2,0.6-10.2,6.2c0,3.8,2,4.8,13.2,6.2
			c16.8,2.1,24.3,7.2,24.3,22.1c0,19.7-14.1,24.9-32.4,24.9c-7.8,0-19.1-1.6-25.7-4l4.2-16.4c5.4,1.6,13.4,3,20.5,3
			c8.5,0,12.4-0.7,12.4-6.4c0-4-2.4-5.5-14.4-6.6c-15.1-1.4-23.2-5.8-23.2-21.2c0-19.7,14-24.8,32.1-24.8c7.8,0,18,1.6,24.8,4
			L60.3,281.9z"/>
		<path id="XMLID_36_" class="st0" d="M75.9,266.9c7.8-3,21.5-5.1,32.8-5.1c24.6,0,35.5,8.6,35.5,38.2c0,29.3-12.7,38.2-30.7,38.2
			c-7.1,0-11.9-1.6-15.8-3.3v28.4H75.9V266.9z M97.7,314.9c0,3.3,4.8,5.5,11.2,5.5c10.3,0,13.6-4.5,13.6-19.8
			c0-17.5-3.4-20.7-13.7-20.7c-3.8,0-8.5,0.7-11,1.7V314.9z"/>
		<path id="XMLID_33_" class="st0" d="M152.7,299.6c0-29.6,12-37.8,35.1-37.8c23.5,0,35.4,8.2,35.4,37.8c0,29.7-11.7,38.6-35.4,38.6
			C164.4,338.2,152.7,329.3,152.7,299.6z M174.6,300c0,18.2,3,21.2,13.2,21.2c10.3,0,13.3-3,13.3-21.2c0-19-3-21.2-13.3-21.2
			C177.6,278.8,174.6,281.1,174.6,300z"/>
		<path id="XMLID_31_" class="st0" d="M232.6,263.8h21.8v7.6c2.4-4.2,7.1-7.6,17.5-7.6c2.1,0,12.4,0,12.4,0l-11.6,18.7l-3.8,0
			c-7.8,0-14.6,2.5-14.6,7.4v46.4h-21.8V263.8z"/>
		<path id="XMLID_29_" class="st0" d="M345.9,263.8v3.5c-9.1,15.1-24.6,38.1-33.7,50.2h32v18.7h-65.5v-3.5
			c11.9-15.8,28.2-39.9,34-50.2h-29.1l11.3-18.7H345.9z"/>
		<path id="XMLID_26_" class="st0" d="M417.5,332.6c-9.8,3.5-23.8,5.7-34.4,5.7c-23.9,0-31-5.1-31-24.1c0-20.4,11-23.6,28.3-23.6
			c5.4,0,10.9,0.7,16.4,1.8c0-10-2.3-12.9-16.4-12.9c-8.3,0-16.4,1.6-22.5,3.4l-3.4-17.3c8.3-2.1,20.4-3.8,31.1-3.8
			c21.6,0,31.8,6.6,31.8,28.2V332.6z M384.8,322.1c4.1,0,8.6-0.7,12-2v-13.7c-3.3-0.8-7.4-1-11.7-1c-7.8,0-10.6,0.8-10.6,8.1
			C374.5,320.8,376.3,322.1,384.8,322.1z"/>
	</g>
	<g id="XMLID_16_">
		<g id="XMLID_22_">
			<path id="XMLID_4_" class="st1" d="M319.3,104.2c6.6,9.3,10.8,19.9,12,31.2c5,47.4-44,91.5-109.4,98.4
				c-27.5,2.9-53.5-1.3-74.8-10.6c16.4,8.2,35.3,13.9,55.7,16.1c69.4,7.6,130.1-27.1,135.6-77.5
				C340.7,141.2,333.4,121.2,319.3,104.2z"/>
			<path id="XMLID_3_" class="st1" d="M94.5,160.4c-5-47.4,44-91.5,109.3-98.4c26-2.7,50.6,0.8,71.2,9
				c-15.5-7.2-33.1-12.3-52.1-14.4c-69.3-7.6-130.1,27.1-135.6,77.5c-2.3,21.1,5.4,41.7,20.3,59C100.4,183.4,95.8,172.4,94.5,160.4z
				"/>
		</g>
		<g id="XMLID_17_">
			<g id="XMLID_20_">
				<path id="XMLID_2_" class="st2" d="M208.6,130.8c-11.8,2.1-10,8.2-4.2,8.1c12.6-0.3,34.5,5.2,36.4,15.8
					c2.2,12-6.9,19.8-23.4,23.2c-34.6,7.1-64.7-12.6-69.6-34.4c-2.7-12.1,2.3-24.5,11.5-34.6c-24.5,13.8-36.6,32.9-32.9,53.3
					c5.1,27.8,48.4,53.6,97.3,43.2c29.3-6.3,42.5-25.4,38.5-47.8C258.8,138.6,232.7,126.4,208.6,130.8z"/>
			</g>
			<g id="XMLID_18_">
				<path id="XMLID_1_" class="st2" d="M214.2,164.6c11.8-2.1,10-8.3,4.2-8.1c-12.6,0.3-34.5-5.2-36.4-15.8
					c-2.2-12,6.9-19.8,23.4-23.2c34.6-7.1,64.7,12.6,69.6,34.4c2.7,12.1-2.3,24.5-11.5,34.6c24.5-13.8,36.6-32.9,32.9-53.3
					c-5.1-27.8-48.4-53.7-97.3-43.2c-29.3,6.3-42.5,25.5-38.5,47.8C164.1,156.8,190.1,169,214.2,164.6z"/>
			</g>
		</g>
	</g>
</g>
</svg>
